<svg width="75" height="75" viewBox="0 0 75 75" fill="none" xmlns="http://www.w3.org/2000/svg">
<path d="M37.5 5C31.0722 5 24.7886 6.90609 19.444 10.4772C14.0994 14.0484 9.93379 19.1242 7.47393 25.0628C5.01408 31.0013 4.37047 37.5361 5.62449 43.8405C6.87851 50.1448 9.97384 55.9359 14.5191 60.4809C19.0643 65.0262 24.8552 68.1217 31.1595 69.3756C37.4641 70.6296 43.9987 69.9861 49.9372 67.5261C55.876 65.0663 60.9518 60.9008 64.5229 55.5562C68.094 50.2116 70 43.9278 70 37.5C70 28.8804 66.576 20.614 60.4812 14.519C54.3861 8.42409 46.1196 5 37.5 5ZM37.5 65.0002C32.0612 65.0002 26.7442 63.3873 22.2219 60.3655C17.6995 57.3437 14.1748 53.0488 12.0933 48.0239C10.0119 42.9988 9.46734 37.4695 10.5284 32.1351C11.5895 26.8006 14.2086 21.9005 18.0546 18.0546C21.9006 14.2086 26.8006 11.5895 32.1351 10.5284C37.4695 9.46732 42.9988 10.0119 48.0239 12.0933C53.0487 14.1747 57.3436 17.6995 60.3655 22.2218C63.3873 26.7442 65.0002 32.0609 65.0002 37.5C65.0002 44.7936 62.1028 51.7882 56.9455 56.9455C51.7882 62.1028 44.7936 65.0002 37.5 65.0002Z" fill="white"/>
<path d="M24.4767 36.8501C24.7091 37.0844 24.9856 37.2705 25.2902 37.3973C25.5949 37.5243 25.9217 37.5895 26.2517 37.5895C26.5817 37.5895 26.9085 37.5243 27.2131 37.3973C27.5178 37.2705 27.7943 37.0844 28.0267 36.8501L33.9017 30.9751C35.0055 29.8553 35.6788 28.3818 35.8025 26.8142C35.9263 25.2467 35.4927 23.6858 34.5783 22.4066C33.6637 21.1275 32.3271 20.2123 30.8037 19.8223C29.2805 19.4324 27.6683 19.5927 26.2517 20.275C24.8329 19.5506 23.2011 19.3596 21.6533 19.7367C20.1055 20.1138 18.7445 21.0341 17.818 22.33C16.8914 23.626 16.4609 25.2115 16.6047 26.798C16.7486 28.3846 17.4572 29.8668 18.6017 30.9751L24.4767 36.8501ZM22.1267 25C22.2784 24.8412 22.4608 24.7148 22.6627 24.6284C22.8647 24.5421 23.082 24.4975 23.3017 24.4975C23.5213 24.4975 23.7387 24.5421 23.9406 24.6284C24.1426 24.7148 24.3249 24.8412 24.4767 25C24.7091 25.2344 24.9856 25.4204 25.2902 25.5473C25.5949 25.6742 25.9217 25.7395 26.2517 25.7395C26.5817 25.7395 26.9085 25.6742 27.2131 25.5473C27.5178 25.4204 27.7943 25.2344 28.0267 25C28.1802 24.8443 28.3631 24.7207 28.5648 24.6363C28.7666 24.5519 28.9829 24.5084 29.2016 24.5084C29.4203 24.5084 29.6368 24.5519 29.8385 24.6363C30.0402 24.7207 30.2232 24.8443 30.3767 25C30.5354 25.1518 30.662 25.3341 30.7484 25.5361C30.8346 25.738 30.8792 25.9554 30.8792 26.1751C30.8792 26.3947 30.8346 26.6121 30.7484 26.814C30.662 27.016 30.5354 27.1983 30.3767 27.3501L26.2517 31.5501L22.1267 27.5001C21.9679 27.3483 21.8414 27.166 21.7551 26.964C21.6687 26.7621 21.6242 26.5447 21.6242 26.325C21.6242 26.1054 21.6687 25.888 21.7551 25.6861C21.8414 25.4841 21.9679 25.3018 22.1267 25.15V25Z" fill="white"/>
<path d="M46.9763 36.8501C47.2087 37.0844 47.4852 37.2705 47.7899 37.3973C48.0945 37.5243 48.4213 37.5895 48.7512 37.5895C49.0814 37.5895 49.4082 37.5243 49.7129 37.3973C50.0175 37.2705 50.2938 37.0844 50.5264 36.8501L56.4014 30.9751C57.5052 29.8553 58.1784 28.3818 58.3022 26.8142C58.4259 25.2467 57.9924 23.6858 57.078 22.4066C56.1634 21.1275 54.8267 20.2123 53.3033 19.8223C51.7801 19.4324 50.1679 19.5927 48.7512 20.275C47.3324 19.5506 45.7006 19.3596 44.1529 19.7367C42.6051 20.1138 41.2442 21.0341 40.3175 22.33C39.3911 23.626 38.9606 25.2115 39.1044 26.798C39.2482 28.3846 39.9569 29.8668 41.1013 30.9751L46.9763 36.8501ZM44.6264 25C44.778 24.8412 44.9603 24.7148 45.1624 24.6284C45.3643 24.5421 45.5816 24.4975 45.8012 24.4975C46.0209 24.4975 46.2383 24.5421 46.4403 24.6284C46.6422 24.7148 46.8245 24.8412 46.9763 25C47.2087 25.2344 47.4852 25.4204 47.7899 25.5473C48.0945 25.6742 48.4213 25.7395 48.7512 25.7395C49.0814 25.7395 49.4082 25.6742 49.7129 25.5473C50.0175 25.4204 50.2938 25.2344 50.5264 25C50.6799 24.8443 50.8627 24.7207 51.0644 24.6363C51.2663 24.5519 51.4826 24.5084 51.7013 24.5084C51.9199 24.5084 52.1365 24.5519 52.3382 24.6363C52.5398 24.7207 52.7229 24.8443 52.8764 25C53.035 25.1518 53.1616 25.3341 53.2478 25.5361C53.3343 25.738 53.3789 25.9554 53.3789 26.1751C53.3789 26.3947 53.3343 26.6121 53.2478 26.814C53.1616 27.016 53.035 27.1983 52.8764 27.3501L48.7512 31.5501L44.6264 27.5001C44.4674 27.3483 44.3411 27.166 44.2547 26.964C44.1682 26.7621 44.1238 26.5447 44.1238 26.325C44.1238 26.1054 44.1682 25.888 44.2547 25.6861C44.3411 25.4841 44.4674 25.3018 44.6264 25.15V25Z" fill="white"/>
<path d="M55.0001 40.0001C54.337 40.0001 53.7012 40.2637 53.2322 40.7325C52.7635 41.2012 52.5002 41.8372 52.5002 42.5003C52.5002 49.4002 45.775 55.0003 37.5 55.0003C29.225 55.0003 22.5 49.4002 22.5 42.5003C22.5 41.8372 22.2367 41.2012 21.7678 40.7325C21.299 40.2637 20.6631 40.0001 20 40.0001C19.337 40.0001 18.7011 40.2637 18.2323 40.7325C17.7634 41.2012 17.5 41.8372 17.5 42.5003C17.5 52.1502 26.4751 60.0004 37.5 60.0004C48.525 60.0004 57.5002 52.1502 57.5002 42.5003C57.5002 41.8372 57.2367 41.2012 56.7679 40.7325C56.2991 40.2637 55.6632 40.0001 55.0001 40.0001Z" fill="white"/>
</svg>
