<svg width="75" height="75" viewBox="0 0 75 75" fill="none" xmlns="http://www.w3.org/2000/svg">
<g clip-path="url(#clip0)">
<path d="M37.5 0C30.0833 0 22.833 2.19934 16.6662 6.3199C10.4993 10.4405 5.69284 16.2972 2.85454 23.1494C0.0162488 30.0015 -0.726378 37.5417 0.72057 44.8159C2.16752 52.0901 5.73905 58.7722 10.9835 64.0165C16.228 69.261 22.9099 72.8327 30.1841 74.2796C37.4586 75.7264 44.9985 74.9839 51.8506 72.1455C58.703 69.3073 64.5598 64.5009 68.6803 58.3341C72.8008 52.1672 75 44.9167 75 37.5C75 27.5544 71.0493 18.0161 64.0167 10.9835C56.9839 3.95088 47.4457 0 37.5 0ZM37.5 69.231C31.2244 69.231 25.0895 67.3699 19.8714 63.8832C14.6533 60.3965 10.5863 55.4409 8.18462 49.643C5.783 43.8448 5.15463 37.4649 6.37895 31.3097C7.6033 25.1545 10.6254 19.5006 15.063 15.063C19.5006 10.6254 25.1545 7.60327 31.3097 6.37895C37.4649 5.1546 43.8448 5.78297 49.643 8.18462C55.4409 10.5862 60.3965 14.6533 63.8832 19.8714C67.3699 25.0895 69.231 31.2242 69.231 37.5C69.231 45.9157 65.8879 53.9863 59.9371 59.9371C53.9863 65.8879 45.9157 69.231 37.5 69.231Z" fill="#E2306C"/>
<path d="M22.4731 36.7501C22.7413 37.0204 23.0603 37.2351 23.4118 37.3815C23.7633 37.5281 24.1404 37.6033 24.5212 37.6033C24.902 37.6033 25.279 37.5281 25.6305 37.3815C25.982 37.2351 26.3011 37.0204 26.5692 36.7501L33.3482 29.9713C34.6218 28.6792 35.3986 26.979 35.5414 25.1703C35.6842 23.3616 35.1839 21.5605 34.1288 20.0846C33.0735 18.6087 31.5312 17.5526 29.7735 17.1027C28.0159 16.6527 26.1558 16.8377 24.5212 17.625C22.8841 16.7891 21.0013 16.5687 19.2153 17.0039C17.4294 17.4391 15.8591 18.5009 14.79 19.9962C13.7209 21.4915 13.2241 23.3209 13.3901 25.1516C13.5561 26.9823 14.3737 28.6925 15.6942 29.9713L22.4731 36.7501ZM19.7615 23.077C19.9366 22.8937 20.147 22.7479 20.3801 22.6482C20.6131 22.5485 20.8639 22.4972 21.1173 22.4972C21.3707 22.4972 21.6216 22.5485 21.8546 22.6482C22.0876 22.7479 22.298 22.8937 22.4731 23.077C22.7413 23.3473 23.0603 23.562 23.4118 23.7084C23.7633 23.8548 24.1404 23.9302 24.5212 23.9302C24.902 23.9302 25.279 23.8548 25.6305 23.7084C25.982 23.562 26.3011 23.3473 26.5692 23.077C26.7464 22.8973 26.9574 22.7546 27.1902 22.6573C27.423 22.5599 27.6726 22.5097 27.9249 22.5097C28.1772 22.5097 28.4271 22.5599 28.6598 22.6573C28.8925 22.7546 29.1037 22.8973 29.2808 23.077C29.4639 23.252 29.61 23.4624 29.7097 23.6955C29.8092 23.9285 29.8607 24.1793 29.8607 24.4328C29.8607 24.6862 29.8092 24.937 29.7097 25.17C29.61 25.403 29.4639 25.6135 29.2808 25.7885L24.5212 30.6348L19.7615 25.9616C19.5783 25.7865 19.4324 25.5761 19.3328 25.3431C19.2331 25.1101 19.1817 24.8592 19.1817 24.6058C19.1817 24.3524 19.2331 24.1016 19.3328 23.8686C19.4324 23.6355 19.5783 23.4251 19.7615 23.25V23.077Z" fill="#E2306C"/>
<path d="M48.4342 36.7501C48.7023 37.0204 49.0214 37.2351 49.3729 37.3815C49.7244 37.5281 50.1015 37.6033 50.4822 37.6033C50.8631 37.6033 51.2403 37.5281 51.5918 37.3815C51.9433 37.2351 52.2621 37.0204 52.5305 36.7501L59.3093 29.9713C60.5829 28.6792 61.3598 26.979 61.5025 25.1703C61.6453 23.3616 61.145 21.5605 60.09 20.0846C59.0346 18.6087 57.4924 17.5526 55.7346 17.1027C53.9771 16.6527 52.1168 16.8377 50.4822 17.625C48.8451 16.7891 46.9623 16.5687 45.1764 17.0039C43.3906 17.4391 41.8202 18.5009 40.751 19.9962C39.6821 21.4915 39.1853 23.3209 39.3513 25.1516C39.5172 26.9823 40.3349 28.6925 41.6554 29.9713L48.4342 36.7501ZM45.7227 23.077C45.8977 22.8937 46.108 22.7479 46.3413 22.6482C46.5742 22.5485 46.8249 22.4972 47.0783 22.4972C47.3318 22.4972 47.5827 22.5485 47.8157 22.6482C48.0487 22.7479 48.259 22.8937 48.4342 23.077C48.7023 23.3473 49.0214 23.562 49.3729 23.7084C49.7244 23.8548 50.1015 23.9302 50.4822 23.9302C50.8631 23.9302 51.2403 23.8548 51.5918 23.7084C51.9433 23.562 52.2621 23.3473 52.5305 23.077C52.7076 22.8973 52.9185 22.7546 53.1512 22.6573C53.3842 22.5599 53.6338 22.5097 53.8861 22.5097C54.1384 22.5097 54.3883 22.5599 54.621 22.6573C54.8537 22.7546 55.0648 22.8973 55.242 23.077C55.4251 23.252 55.5711 23.4624 55.6706 23.6955C55.7703 23.9285 55.8218 24.1793 55.8218 24.4328C55.8218 24.6862 55.7703 24.937 55.6706 25.17C55.5711 25.403 55.4251 25.6135 55.242 25.7885L50.4822 30.6348L45.7227 25.9616C45.5394 25.7865 45.3936 25.5761 45.2939 25.3431C45.1941 25.1101 45.1429 24.8592 45.1429 24.6058C45.1429 24.3524 45.1941 24.1016 45.2939 23.8686C45.3936 23.6355 45.5394 23.4251 45.7227 23.25V23.077Z" fill="#E2306C"/>
<path d="M57.6924 40.3848C56.9273 40.3848 56.1937 40.6889 55.6526 41.2298C55.1117 41.7706 54.8079 42.5044 54.8079 43.2696C54.8079 51.231 47.0481 57.6927 37.5 57.6927C27.9519 57.6927 20.1924 51.231 20.1924 43.2696C20.1924 42.5044 19.8885 41.7706 19.3475 41.2298C18.8065 40.6889 18.0728 40.3848 17.3077 40.3848C16.5427 40.3848 15.809 40.6889 15.268 41.2298C14.7271 41.7706 14.4231 42.5044 14.4231 43.2696C14.4231 54.4041 24.7789 63.462 37.5 63.462C50.2212 63.462 60.5772 54.4041 60.5772 43.2696C60.5772 42.5044 60.2731 41.7706 59.7322 41.2298C59.1913 40.6889 58.4575 40.3848 57.6924 40.3848Z" fill="#E2306C"/>
</g>
<defs>
<clipPath id="clip0">
<rect width="75" height="75" fill="white"/>
</clipPath>
</defs>
</svg>
