<svg width="75" height="75" viewBox="0 0 75 75" fill="none" xmlns="http://www.w3.org/2000/svg">
<rect width="75" height="75" fill="white"/>
<path fill-rule="evenodd" clip-rule="evenodd" d="M33.3348 28.189C32.8788 28.3906 32.7197 28.6422 32.6007 29.0079C32.5107 29.289 28.9934 44.4188 28.9404 44.6816C28.8674 45.0258 28.8514 45.3161 29.2384 45.4699C29.6414 45.64 31.6536 46.357 31.8097 46.4314C31.9687 46.4904 31.9317 46.6004 31.7576 46.6004H23.1128C22.9568 46.6004 22.8668 46.5505 23.0228 46.4823C23.1988 46.3998 25.107 45.7021 25.283 45.6308C25.491 45.5494 25.9821 45.3681 26.1211 44.922C26.2101 44.592 29.8335 29.3908 29.9035 29.0975C29.9895 28.7247 29.9535 28.3509 29.5184 28.1981C29.2904 28.1065 27.0672 27.3416 26.9972 27.31C26.8752 27.2672 26.8752 27.1888 26.9812 27.1888H36.0491C36.1511 27.1888 36.2411 27.2601 36.1151 27.2998C35.9761 27.3304 34.4869 27.7755 34.3309 27.8264C34.1559 27.8865 33.6138 28.0556 33.3348 28.189Z" fill="black"/>
<path fill-rule="evenodd" clip-rule="evenodd" d="M51.3791 46.0854C51.1113 46.1894 47.9644 47.3958 44.9316 47.477C37.1223 47.686 34.2701 42.2247 35.6142 37.2523C36.3044 34.6303 38.0108 32.1727 40.1925 30.4587C41.4432 29.4821 45.1298 27.1888 49.9665 27.1888C50.8716 27.1888 53.1996 27.3043 54.9049 27.7473C55.7404 27.9647 55.6138 28.4265 55.5214 28.7686C55.4695 28.934 53.6324 34.465 53.5805 34.6012C53.5068 34.8061 53.3252 34.8155 53.3252 34.5898C53.3252 34.465 53.5629 29.5653 53.5421 29.3573C53.5421 28.8414 53.5421 28.5211 52.9619 28.3464C52.1617 28.078 48.3297 27.7473 45.4952 29.0703C40.755 31.2866 37.9911 36.4067 38.5546 40.4827C39.0103 43.8451 41.6829 46.5919 45.9301 46.7053C47.2576 46.7375 48.2394 46.5399 48.529 46.4473C48.9473 46.3225 49.0013 46.1977 49.1082 45.9523C49.1839 45.7037 49.9084 42.7021 49.9291 42.5773C49.9665 42.4421 50.1461 42.0188 49.7091 41.8971C49.2732 41.7817 45.4236 40.7396 45.2243 40.6876C45.0219 40.6387 45.1132 40.5316 45.2606 40.5316H52.4876C52.7803 40.5316 53.5421 40.4619 53.3439 41.1826C53.1238 41.9179 52.034 45.373 51.9417 45.6111C51.8534 45.8576 51.6365 45.9928 51.3791 46.0854Z" fill="black"/>
<path fill-rule="evenodd" clip-rule="evenodd" d="M22.757 46.7781C22.5383 46.6964 20.8213 45.9754 20.3704 45.7647C19.8834 45.5348 19.8452 45.1637 19.8276 44.8662C19.8276 44.5949 20.0835 27.2051 20.0092 27.063C19.9742 26.9863 19.8658 26.9742 19.7761 27.0569C19.4861 27.3342 2.29479 45.6447 1.9873 45.8343C1.37543 46.3062 0.163029 46.7045 0.0918329 46.7358C0.0918329 46.7469 0.0557188 46.7559 0 46.767V46.9072C0.0557188 46.8951 0.0918329 46.8951 0.108342 46.8951H9.17503C9.30092 46.8951 9.33497 46.7862 9.22972 46.767C8.56006 46.6339 5.63689 46.044 5.13129 45.8968C4.64014 45.7566 4.58855 45.4763 4.78666 45.2151C4.94969 44.965 9.57435 39.3815 9.91485 39.1304C10.3317 38.8138 10.5123 38.7715 11.2511 38.7634C11.4874 38.7523 12.8587 38.722 14.1784 38.7634C15.2793 38.7825 16.3452 38.8733 16.6527 38.9005C17.3389 38.952 17.2656 39.4541 17.2656 39.7113C17.2656 39.9523 17.0654 44.0444 17.0479 44.7452C17.0304 45.4642 16.9045 45.566 16.435 45.7254C16.2008 45.7949 13.095 46.767 12.9845 46.8285C12.8762 46.8648 13.0227 46.8951 13.0227 46.8951H22.6445C22.7911 46.8951 22.8457 46.8175 22.757 46.7781ZM17.3389 37.4C17.3389 37.7923 17.1748 38.0111 16.5082 38.0111C15.8572 38.0111 11.831 38.0031 11.831 38.0031C11.1066 37.992 11.1273 37.6007 11.3966 37.3214C11.6504 37.0209 16.5815 31.868 16.761 31.6582C17.1026 31.269 17.4266 31.2871 17.4266 31.8186C17.4266 32.3601 17.3389 37.1298 17.3389 37.4Z" fill="black"/>
<path fill-rule="evenodd" clip-rule="evenodd" d="M74.9574 47.3635C74.7369 47.2802 73.0093 46.5447 72.5527 46.3297C72.043 46.0952 72.0264 45.7167 72.0056 45.4132C71.9879 45.1365 72.2646 27.3981 72.1876 27.253C72.1522 27.1749 72.043 27.1625 71.9525 27.2469C71.6624 27.5297 54.3345 46.2073 54.0048 46.4007C53.3849 46.8821 52.1836 47.312 52.1108 47.3522C52.039 47.384 52.039 47.4828 52.1285 47.4828H61.2667C61.3936 47.4828 61.4113 47.3717 61.3239 47.3522C60.6468 47.2164 57.7002 46.6146 57.1916 46.4645C56.6986 46.3215 56.6435 46.0355 56.8265 45.7691C57.0086 45.514 61.6661 39.8186 61.9958 39.5625C62.4337 39.2395 62.6157 39.1963 63.3593 39.188C63.5996 39.1767 64.9798 39.1459 66.3101 39.188C67.4198 39.2076 68.4776 39.3002 68.8042 39.3279C69.4959 39.3804 69.423 39.8927 69.423 40.1549C69.423 40.4008 69.2202 44.5749 69.2036 45.2898C69.1828 46.0232 69.059 46.1271 68.5837 46.2896C68.332 46.3606 65.218 47.3522 65.1077 47.4149C64.9975 47.4519 65.1452 47.4828 65.1452 47.4828H74.8482C74.9927 47.4828 75.0447 47.4036 74.9574 47.3635ZM69.4959 37.7974C69.4959 38.1975 69.3138 38.4207 68.6555 38.4207C68.0023 38.4207 63.9241 38.4125 63.9241 38.4125C63.1971 38.4012 63.2137 38.0021 63.4862 37.7171C63.7619 37.4106 68.7158 32.1544 68.8957 31.9404C69.2577 31.5434 69.5687 31.5619 69.5687 32.104C69.5687 32.6563 69.4959 37.5217 69.4959 37.7974Z" fill="black"/>
</svg>
