<svg width="76" height="75" viewBox="0 0 76 75" fill="none" xmlns="http://www.w3.org/2000/svg">
<path d="M6.32725 34.4608C7.98532 33.5345 9.75897 32.8323 11.6018 32.3725C16.0712 31.2333 20.7806 31.4726 25.1116 33.0588C25.7782 33.3235 26.4253 33.6176 27.0429 33.9412L36.8861 27.0882C36.48 26.5885 36.1587 26.0254 35.9351 25.4216C35.8168 25.0707 35.7539 24.7036 35.7488 24.3333C35.7574 23.9913 35.8237 23.6533 35.9449 23.3333C36.0037 23.1863 36.0724 23.0392 36.1606 22.8922L25.2194 15.6471C24.7102 15.7728 24.1925 15.8612 23.6704 15.9118C23.2248 15.9689 22.7764 16.0017 22.3273 16.0098C20.107 16.0673 17.8938 15.7355 15.788 15.0294L15.6312 14.9706C9.17087 21.4431 4.08832 29.157 0.689999 37.6471L1.12137 38.6569L1.21941 38.5392C2.57235 36.9706 4.28804 35.5882 6.31745 34.4608H6.32725ZM17.9253 12.9216C18.5988 13.152 19.2959 13.3065 20.0037 13.3824L20.4449 13.4216C21.0661 13.4579 21.6892 13.4415 22.3076 13.3725C22.6584 13.3236 23.0056 13.2515 23.3469 13.1569L23.8076 13C24.3174 12.7941 24.69 12.5294 24.9449 12.2353C25.19 11.9412 25.3076 11.6275 25.2978 11.2941C25.2978 10.9706 25.1704 10.6275 24.9253 10.3039C24.6327 9.91932 24.2701 9.59336 23.8567 9.34314C23.4925 9.119 23.1085 8.92867 22.7096 8.77451C21.0128 10.0636 19.3771 11.4311 17.8076 12.8725C17.8567 12.8824 17.8861 12.902 17.9253 12.9216ZM70.9547 39.7353C70.4654 39.6277 69.9655 39.575 69.4645 39.5784C68.8589 39.5884 68.2618 39.7218 67.7096 39.9706C67.4272 40.1154 67.1718 40.3077 66.9547 40.5392C66.8469 40.6569 66.7488 40.7843 66.6606 40.9216C66.3665 41.4118 66.239 41.9804 66.2684 42.6078C66.288 43.2451 66.4841 43.9412 66.8174 44.6471C67.1508 45.3725 67.641 46.098 68.2586 46.8039C68.7684 47.3726 69.3665 47.9216 70.0233 48.4216C71.5333 46.0487 72.8922 43.583 74.092 41.0392C73.603 40.7389 73.0917 40.4767 72.5625 40.2549C72.0436 40.0328 71.5054 39.8589 70.9547 39.7353ZM26.6998 8.31373C27.4449 8.77451 28.0331 9.2549 28.4841 9.7549C28.9351 10.2647 29.239 10.7843 29.3861 11.3039C29.5331 11.8333 29.5331 12.3529 29.3567 12.8529C29.1802 13.3529 28.8371 13.8333 28.3076 14.2647L38.9939 21.1275L39.1606 21.0882L39.5135 21.0294L39.69 21.0098C40.5043 20.9045 41.3294 20.9144 42.141 21.0392C43.0017 21.1535 43.8468 21.3639 44.6606 21.6667L51.4253 16.9608C50.8118 16.4948 50.2614 15.951 49.788 15.3431C49.4301 14.888 49.1698 14.3641 49.0233 13.8039C48.9057 13.3333 48.9351 12.8824 49.1116 12.4902C49.2782 12.1078 49.592 11.7745 50.0429 11.5098C50.3664 11.3227 50.717 11.1871 51.0822 11.1078C51.6584 10.961 52.2524 10.895 52.8469 10.9118C53.3883 10.909 53.9292 10.9484 54.4645 11.0294C55.3978 11.1634 56.3167 11.3833 57.2096 11.6863C51.5527 6.78431 45.0724 2.79412 38.0527 0C33.3378 1.92558 28.8579 4.38263 24.6998 7.32353H24.7292C25.4351 7.61765 26.1018 7.94118 26.7096 8.31373H26.6998ZM63.4449 19.5588C62.8998 19.8741 62.2959 20.0743 61.6704 20.1471C60.8999 20.2553 60.1183 20.2586 59.3469 20.1569C58.1747 20.0347 57.0221 19.768 55.9155 19.3627C55.5233 19.2255 55.1508 19.0686 54.7782 18.9118L48.3273 23.9706C48.6508 24.2941 48.9155 24.6275 49.141 24.9608C49.3665 25.3039 49.5331 25.6471 49.6606 25.9902C49.788 26.3431 49.8567 26.6863 49.8665 27.0294C49.8861 27.3725 49.8371 27.7157 49.7292 28.0294L63.19 36.6765C63.683 36.3425 64.2304 36.097 64.8076 35.951C65.5233 35.7451 66.3175 35.6471 67.1606 35.6471C67.9939 35.6471 68.8861 35.7451 69.8076 35.951C70.7194 36.1471 71.6704 36.451 72.6312 36.8529C73.5135 37.2255 74.4253 37.6765 75.3371 38.2255L75.69 37.3431C72.9106 30.5478 69.0393 24.2525 64.2292 18.7059C64.1312 18.8922 64.0233 19.0784 63.8469 19.2353C63.7292 19.3529 63.592 19.4608 63.4449 19.5588ZM25.19 38.5294C24.2405 37.7749 23.1652 37.194 22.0135 36.8137C20.795 36.3914 19.5185 36.1599 18.2292 36.1274C15.5339 36.0186 12.8657 36.7002 10.5527 38.0882C9.41656 38.7763 8.41904 39.6708 7.61157 40.7255C6.86439 41.6969 6.34203 42.822 6.08216 44.0196C5.82855 45.2063 5.88254 46.4381 6.23902 47.598C6.65032 48.8761 7.38286 50.0273 8.36647 50.9412C9.13118 51.6667 10.0135 52.2549 10.9841 52.7157C11.9645 53.1863 13.0135 53.5098 14.1116 53.7059C17.6544 54.3247 21.2992 53.5445 24.2782 51.5294C24.6312 51.2843 24.9645 51.0196 25.2782 50.7353C26.2803 49.8605 27.0828 48.7806 27.6312 47.5686C28.0982 46.5555 28.3219 45.4472 28.2845 44.3323C28.247 43.2173 27.9494 42.1266 27.4155 41.1471C26.8612 40.131 26.1036 39.24 25.19 38.5294Z" fill="white"/>
<path d="M64.8665 49.3235C63.8823 48.2477 63.0328 47.0559 62.3371 45.7745C61.7585 44.7101 61.3484 43.5625 61.1214 42.3726C60.9287 41.4022 60.9521 40.4014 61.19 39.4412L47.239 30.2255C46.9969 30.3126 46.7476 30.3782 46.4939 30.4216C45.9492 30.5345 45.3932 30.5838 44.8371 30.5686C43.7735 30.5723 42.7155 30.4136 41.6998 30.098L40.8763 29.8039L31.4057 37.2549C32.4589 38.3841 33.3022 39.6922 33.8959 41.1176C34.4841 42.549 34.7978 44.0588 34.8076 45.6078C34.8076 47.2059 34.5037 48.8431 33.8371 50.4608C33.1508 52.1275 32.0723 53.7745 30.6018 55.2941C29.5814 56.3388 28.4392 57.2572 27.1998 58.0294C25.9069 58.8515 24.5257 59.5257 23.0822 60.0392C21.2381 60.7026 19.3177 61.1308 17.3665 61.3137L16.9841 61.3431C23.1802 67.2017 30.4285 71.8355 38.3469 75C50.0761 70.1815 60.2281 62.1856 67.6606 51.9118C66.6552 51.1325 65.7202 50.2664 64.8665 49.3235ZM53.4449 15.7255C54.0596 16.3103 54.7777 16.7758 55.5626 17.098C56.4706 17.4969 57.4375 17.7452 58.4253 17.8333C58.8452 17.8516 59.2658 17.8253 59.6802 17.7549C59.8911 17.709 60.0954 17.6366 60.288 17.5392C60.3665 17.4902 60.4449 17.4412 60.5135 17.3725C60.7586 17.1765 60.8763 16.9118 60.8861 16.6373C60.8862 16.3174 60.7943 16.0043 60.6214 15.7353C60.397 15.3839 60.1191 15.0697 59.7978 14.8039C59.1982 14.28 58.5157 13.8593 57.7782 13.5588C57.037 13.2433 56.26 13.0194 55.4645 12.8922C55.2595 12.8641 55.0535 12.8445 54.8469 12.8333H54.5625C54.2389 12.844 53.917 12.8867 53.6018 12.9608C53.4098 13.0164 53.2254 13.0954 53.0527 13.1961C52.7782 13.3725 52.6214 13.6078 52.5625 13.8627C52.5037 14.1275 52.5429 14.4314 52.6998 14.7451C52.8469 15.0588 53.092 15.3922 53.4449 15.7255ZM46.4939 24.6765C46.1493 24.2872 45.7496 23.9503 45.3076 23.6765C44.6292 23.241 43.8791 22.929 43.092 22.7549C42.3617 22.5935 41.6103 22.5504 40.8665 22.6275C40.4678 22.6869 40.0788 22.799 39.7096 22.9608C39.592 23.0196 39.4841 23.0784 39.3763 23.1569C39.2096 23.2647 39.0625 23.3922 38.9351 23.5392C38.6904 23.8116 38.5392 24.1552 38.5037 24.5196C38.4841 24.7059 38.5037 24.8922 38.5331 25.098C38.6435 25.5268 38.8366 25.9298 39.1018 26.2843C39.4304 26.7146 39.836 27.0802 40.2978 27.3627C41.0577 27.88 41.915 28.2369 42.8175 28.4118C43.4598 28.5373 44.1168 28.5703 44.7684 28.5098C45.1586 28.4613 45.5409 28.3625 45.9057 28.2157C46.142 28.1166 46.3632 27.9846 46.5626 27.8235C46.8861 27.5588 47.092 27.2353 47.19 26.8824C47.288 26.5392 47.2586 26.1667 47.141 25.7941C47.0026 25.3819 46.7825 25.0017 46.4939 24.6765Z" fill="white"/>
</svg>
