<svg width="75" height="75" viewBox="0 0 75 75" fill="none" xmlns="http://www.w3.org/2000/svg">
<path d="M0 18.875C0 16.1826 2.18261 14 4.875 14H37.875C40.5674 14 42.75 16.1826 42.75 18.875C42.75 21.5674 40.5674 23.75 37.875 23.75H4.875C2.18261 23.75 0 21.5674 0 18.875Z" fill="white"/>
<path d="M0 37.625C0 34.9326 2.18261 32.75 4.875 32.75H26.625C29.3174 32.75 31.5 34.9326 31.5 37.625C31.5 40.3174 29.3174 42.5 26.625 42.5H4.875C2.18261 42.5 0 40.3174 0 37.625Z" fill="white"/>
<path d="M0 56.375C0 53.6826 2.18261 51.5 4.875 51.5H8.625C11.3174 51.5 13.5 53.6826 13.5 56.375C13.5 59.0674 11.3174 61.25 8.625 61.25H4.875C2.18261 61.25 0 59.0674 0 56.375Z" fill="white"/>
<path d="M30.75 56.375C30.75 53.6826 32.9326 51.5 35.625 51.5H39.375C42.0674 51.5 44.25 53.6826 44.25 56.375C44.25 59.0674 42.0674 61.25 39.375 61.25H35.625C32.9326 61.25 30.75 59.0674 30.75 56.375Z" fill="white"/>
<path d="M61.5 56.375C61.5 53.6826 63.6826 51.5 66.375 51.5H70.125C72.8174 51.5 75 53.6826 75 56.375C75 59.0674 72.8174 61.25 70.125 61.25H66.375C63.6826 61.25 61.5 59.0674 61.5 56.375Z" fill="white"/>
<path d="M48.375 18.875C48.375 16.1826 50.5576 14 53.25 14C55.9424 14 58.125 16.1826 58.125 18.875C58.125 21.5674 55.9424 23.75 53.25 23.75C50.5576 23.75 48.375 21.5674 48.375 18.875Z" fill="white"/>
<path d="M37.125 37.625C37.125 34.9326 39.3076 32.75 42 32.75H63.75C66.4424 32.75 68.625 34.9326 68.625 37.625C68.625 40.3174 66.4424 42.5 63.75 42.5H42C39.3076 42.5 37.125 40.3174 37.125 37.625Z" fill="white"/>
</svg>
