<svg width="75" height="75" viewBox="0 0 75 75" fill="none" xmlns="http://www.w3.org/2000/svg">
<path d="M42.3045 37.2978C42.3045 49.0598 32.8342 58.5948 21.1526 58.5948C9.47103 58.5948 0 49.0577 0 37.2978C0 25.5379 9.47031 16 21.1526 16C32.8349 16 42.3045 25.5357 42.3045 37.2978ZM65.5089 37.2978C65.5089 48.3692 60.7737 57.348 54.9325 57.348C49.0914 57.348 44.3562 48.3692 44.3562 37.2978C44.3562 26.2263 49.0907 17.2476 54.9318 17.2476C60.773 17.2476 65.5089 26.2234 65.5089 37.2978ZM75 37.2978C75 47.2151 73.3349 55.2596 71.2803 55.2596C69.2257 55.2596 67.5613 47.2172 67.5613 37.2978C67.5613 27.3783 69.2264 19.336 71.2803 19.336C73.3342 19.336 75 27.3776 75 37.2978Z" fill="white"/>
</svg>
