<svg width="75" height="75" viewBox="0 0 75 75" fill="none" xmlns="http://www.w3.org/2000/svg">
<rect width="75" height="75" rx="15" fill="url(#paint0_linear)"/>
<path d="M12.0002 24.2854C12.0002 23.028 12.1248 21.6582 13.9875 20.2944C20.224 15.7688 29.8163 15.6905 34.6986 21.4063C35.9303 23.2891 36.6851 23.8481 36.6851 29.3328V59.7378C36.6851 60.9952 36.6838 56.7365 32.3261 53.5108C27.8621 50.0616 20.2248 49.8312 13.9875 54.3571C12.8377 55.2079 12.0002 55.051 12.0002 53.7936C12.0007 47.0267 11.9996 31.0524 12.0002 24.2854Z" fill="white"/>
<path d="M60.9441 54.3571C62.0938 55.2079 62.9314 55.051 62.9314 53.7936C62.9308 47.0267 62.9322 31.0524 62.9311 24.2852C62.9311 23.028 62.8065 21.6579 60.9438 20.2944C54.7073 15.7688 45.115 15.6905 40.233 21.4063C39.0012 23.2891 38.2464 23.8481 38.2464 29.3328V59.7378C38.2464 60.9952 38.2478 56.7365 42.6054 53.5108C47.0695 50.0616 54.7068 49.8312 60.9441 54.3571Z" fill="white"/>
<defs>
<linearGradient id="paint0_linear" x1="37.5" y1="0" x2="37.5" y2="75" gradientUnits="userSpaceOnUse">
<stop stop-color="#FCAE17"/>
<stop offset="1" stop-color="#F96920"/>
<stop offset="1" stop-opacity="0"/>
</linearGradient>
</defs>
</svg>
