<svg width="75" height="75" viewBox="0 0 75 75" fill="none" xmlns="http://www.w3.org/2000/svg">
<g clip-path="url(#clip0)">
<path fill-rule="evenodd" clip-rule="evenodd" d="M34.8576 74.2656L13.8268 62.1236C13.4574 61.9102 13.2618 61.9022 13.2618 61.5232C13.2618 60.5081 12.6119 59.6843 11.8105 59.6843C11.5259 59.6843 11.2751 59.8098 11.0361 59.9678C10.6758 60.2065 10.5939 60.257 9.83884 59.821L6.17142 57.7038C4.83818 56.9337 4.12793 55.5886 4.12793 53.9598V20.836C4.12793 19.2961 4.93721 18.0088 6.34761 17.1944L35.0342 0.632367C36.3678 -0.137795 37.8874 -0.0800127 39.2976 0.734291L67.9841 17.296C69.3176 18.0658 70.0275 19.4109 70.0275 21.0395L70.0279 54.1636C70.0279 55.7037 69.2182 56.9911 67.8076 57.8053L39.1215 74.367C37.788 75.1375 36.2684 75.0801 34.8576 74.2656Z" fill="#CFCDCE"/>
<path fill-rule="evenodd" clip-rule="evenodd" d="M65.1864 15.6493L68.0055 17.2765C69.3387 18.0463 70.0486 19.3918 70.0486 21.02V54.1439C70.0486 55.6841 69.2396 56.9715 67.8291 57.7857L41.2827 73.1125C38.7984 74.5472 38.174 73.6692 38.174 70.8461V51.7845C38.174 51.0718 38.0978 50.8885 38.6055 50.6895C39.1963 50.4581 39.6255 49.7587 39.6255 48.9333C39.6255 48.1576 39.2468 47.4934 38.7106 47.2239C38.1736 46.9536 38.174 46.9167 38.174 46.2284V44.0057C38.174 41.6009 38.5041 40.8228 40.3249 39.2474L66.5031 22.3913L65.1864 15.6493Z" fill="#909090"/>
<path fill-rule="evenodd" clip-rule="evenodd" d="M4.33838 19.3975C4.68181 18.4956 5.35617 17.7391 6.29965 17.1943L34.9855 0.632244C36.3191 -0.137922 37.8394 -0.0797831 39.2496 0.734163L67.9357 17.2959C68.8012 17.7955 69.4044 18.5376 69.7212 19.4424C69.3775 20.3442 68.7033 21.1008 67.76 21.6456L39.0731 38.2078C37.7391 38.9775 36.2197 38.9197 34.8097 38.1055L6.12346 21.5436C5.25783 21.0441 4.6549 20.3023 4.33838 19.3975Z" fill="#ADABAB"/>
<path fill-rule="evenodd" clip-rule="evenodd" d="M17.2861 18.962C17.4946 18.4147 17.9041 17.9556 18.4765 17.6248C24.1476 14.3499 29.4745 11.275 35.8863 7.57315C36.6956 7.10555 37.6184 7.14104 38.4742 7.63488L55.8843 17.6865C56.4101 17.9897 56.7758 18.4401 56.9684 18.9892C56.7594 19.5365 56.3503 19.9955 55.7776 20.326L38.3676 30.3784C37.5578 30.8453 36.6357 30.8105 35.7797 30.3163L18.3692 20.2647C17.8438 19.9614 17.4781 19.511 17.2861 18.962Z" fill="black"/>
</g>
<defs>
<clipPath id="clip0">
<rect width="66.1765" height="75" fill="white" transform="translate(4)"/>
</clipPath>
</defs>
</svg>
