<svg width="75" height="75" viewBox="0 0 75 75" fill="none" xmlns="http://www.w3.org/2000/svg">
<path d="M14.5606 35.2363C14.9727 35.2363 15.2474 35.2363 15.5221 35.3737C15.7968 35.5111 16.2089 35.6484 16.4837 35.7858L17.1705 34.0001C16.3463 33.588 15.5221 33.4506 14.5606 33.4506C13.7364 33.4506 13.0496 33.588 12.3628 34.0001C11.676 34.4122 11.2639 34.8242 10.9891 35.5111C10.7144 36.1979 10.4397 36.8847 10.4397 37.8462C10.4397 39.2199 10.7144 40.3188 11.4012 41.1429C12.088 41.8297 13.0496 42.2418 14.2859 42.2418C15.2474 42.2418 15.9342 42.1045 16.621 41.8297V39.9067C16.2089 40.044 15.9342 40.1814 15.5221 40.3188C15.11 40.4561 14.8353 40.4561 14.4232 40.4561C13.187 40.4561 12.5001 39.6319 12.5001 37.9836C12.5001 37.1594 12.6375 36.61 12.9122 36.1979C13.599 35.5111 14.0111 35.2363 14.5606 35.2363Z" fill="white"/>
<path d="M24.7254 40.1815C24.3133 40.1815 23.9012 40.1815 23.4891 40.0442C23.0771 39.9068 22.5276 39.7694 22.1155 39.4947V41.5551C22.5276 41.6925 22.9397 41.8299 23.3518 41.9672C23.7639 42.1046 24.176 42.1046 24.7254 42.1046C25.4122 42.1046 25.9617 41.9672 26.5111 41.8299C27.0606 41.5551 27.3353 41.2804 27.61 40.8683C27.8848 40.4562 28.0221 40.0442 28.0221 39.4947C28.0221 38.9453 27.8848 38.3958 27.61 38.1211C27.3353 37.709 26.7859 37.4343 26.099 37.0222C25.2749 36.6101 24.8628 36.4727 24.7254 36.3354C24.5881 36.198 24.4507 36.0606 24.4507 35.9233C24.4507 35.7859 24.4507 35.6486 24.5881 35.5112C24.7254 35.3738 25.0001 35.3738 25.2749 35.3738C25.8243 35.3738 26.5111 35.5112 27.3353 35.9233L28.0221 34.1376C27.0606 33.7255 26.2364 33.5881 25.2749 33.5881C24.3133 33.5881 23.4891 33.8628 22.9397 34.2749C22.3902 34.687 22.1155 35.3738 22.1155 36.0606C22.1155 36.4727 22.1155 36.8848 22.2529 37.1595C22.3902 37.4343 22.5276 37.709 22.8023 37.9837C23.0771 38.2584 23.4891 38.5332 24.0386 38.6705C24.5881 38.9453 25.0001 39.0826 25.1375 39.22C25.2749 39.3573 25.4122 39.3573 25.4122 39.4947C25.4122 39.6321 25.5496 39.6321 25.5496 39.7694C25.5496 39.9068 25.4122 40.0442 25.2749 40.1815C25.2749 40.1815 25.0001 40.1815 24.7254 40.1815Z" fill="white"/>
<path d="M35.4394 40.1815C35.0273 40.1815 34.6153 40.1815 34.2032 40.0442C33.7911 39.9068 33.2416 39.7694 32.8295 39.4947V41.5551C33.2416 41.6925 33.6537 41.8299 34.0658 41.9672C34.4779 42.1046 34.89 42.1046 35.4394 42.1046C36.1262 42.1046 36.6757 41.9672 37.2251 41.8299C37.7746 41.5551 38.0493 41.2804 38.324 40.8683C38.5988 40.4562 38.7361 40.0442 38.7361 39.4947C38.7361 38.9453 38.5988 38.3958 38.324 38.1211C38.0493 37.709 37.4999 37.4343 36.8131 37.0222C35.9889 36.6101 35.5768 36.4727 35.4394 36.3354C35.3021 36.198 35.1647 36.0606 35.1647 35.9233C35.1647 35.7859 35.1647 35.6486 35.3021 35.5112C35.4394 35.3738 35.7142 35.3738 35.9889 35.3738C36.5383 35.3738 37.2251 35.5112 38.0493 35.9233L38.7361 34.1376C37.7746 33.7255 36.9504 33.5881 35.9889 33.5881C35.0273 33.5881 34.2032 33.8628 33.6537 34.2749C33.1043 34.687 32.8295 35.3738 32.8295 36.0606C32.8295 36.4727 32.8295 36.8848 32.9669 37.1595C33.1043 37.4343 33.2416 37.709 33.5164 37.9837C33.7911 38.2584 34.2032 38.5332 34.7526 38.6705C35.3021 38.9453 35.7141 39.0826 35.8515 39.22C35.9889 39.3573 36.1262 39.3573 36.1262 39.4947C36.1262 39.6321 36.2636 39.6321 36.2636 39.7694C36.2636 39.9068 36.1262 40.0442 35.9889 40.1815C36.1262 40.1815 35.8515 40.1815 35.4394 40.1815Z" fill="white"/>
<path d="M51.2364 37.5715C51.2364 36.1979 50.8243 35.2363 50.1375 34.5495C49.4507 33.8627 48.3518 33.4506 46.9782 33.4506H44.0935V41.9671H46.8408C48.2144 41.9671 49.3133 41.555 50.1375 40.8682C50.8243 40.044 51.2364 38.9451 51.2364 37.5715ZM48.3518 39.4946C48.0771 39.9067 47.5276 40.044 46.8408 40.044H46.2913V35.2363H46.9782C47.665 35.2363 48.0771 35.3737 48.3518 35.7858C48.6265 36.1979 48.7639 36.7473 48.7639 37.5715C48.9012 38.3957 48.7639 39.0825 48.3518 39.4946Z" fill="white"/>
<path d="M61.5387 40.3188L61.9508 41.9671H64.4234L61.6761 33.4506H58.6541L55.9069 41.9671H58.3794L58.7915 40.3188H61.5387ZM59.8904 35.7858C60.0277 35.3737 60.0277 34.9616 60.0277 34.8242C60.0277 35.099 60.1651 35.3737 60.3025 35.9231C60.4398 36.4726 60.5772 36.8847 60.5772 37.1594L60.9893 38.533H59.2036C59.6157 37.1594 59.8904 36.1979 59.8904 35.7858Z" fill="white"/>
<path d="M48.489 27.2692L39.6978 18.6154L31.044 27.2692H26.0989L44.3681 9H25.2747L6.86813 27.2692H0V28.5055H75V27.2692H48.489Z" fill="white"/>
<path d="M0 48.1484H26.3736L34.8901 56.6648L43.544 48.1484H48.2143L30.0824 66.1429H49.3132L58.7912 56.6648L67.4451 48.1484H75V46.7747H0V48.1484Z" fill="white"/>
</svg>
