<svg width="75" height="75" viewBox="0 0 75 75" fill="none" xmlns="http://www.w3.org/2000/svg">
<path d="M18.6485 35.9891C18.9781 35.9891 19.1979 35.9891 19.4177 36.099C19.6375 36.2088 19.9671 36.3187 20.1869 36.4286L20.7364 35.0001C20.077 34.6704 19.4177 34.5605 18.6485 34.5605C17.9891 34.5605 17.4397 34.6704 16.8902 35.0001C16.3408 35.3297 16.0111 35.6594 15.7913 36.2088C15.5715 36.7583 15.3518 37.3077 15.3518 38.077C15.3518 39.1759 15.5715 40.055 16.121 40.7143C16.6704 41.2638 17.4397 41.5935 18.4287 41.5935C19.1979 41.5935 19.7474 41.4836 20.2968 41.2638V39.7253C19.9671 39.8352 19.7474 39.9451 19.4177 40.055C19.088 40.1649 18.8682 40.1649 18.5386 40.1649C17.5496 40.1649 17.0001 39.5055 17.0001 38.1869C17.0001 37.5275 17.11 37.088 17.3298 36.7583C17.8792 36.2088 18.2089 35.9891 18.6485 35.9891Z" fill="white"/>
<path d="M26.7803 39.9452C26.4507 39.9452 26.121 39.9452 25.7913 39.8353C25.4616 39.7254 25.0221 39.6155 24.6924 39.3958V41.0441C25.0221 41.154 25.3518 41.2639 25.6814 41.3738C26.0111 41.4837 26.3408 41.4837 26.7803 41.4837C27.3298 41.4837 27.7693 41.3738 28.2089 41.2639C28.6485 41.0441 28.8682 40.8243 29.088 40.4947C29.3078 40.165 29.4177 39.8353 29.4177 39.3958C29.4177 38.9562 29.3078 38.5166 29.088 38.2969C28.8682 37.9672 28.4287 37.7474 27.8792 37.4177C27.2199 37.0881 26.8902 36.9782 26.7803 36.8683C26.6704 36.7584 26.5605 36.6485 26.5605 36.5386C26.5605 36.4287 26.5606 36.3188 26.6704 36.209C26.7803 36.0991 27.0001 36.0991 27.2199 36.0991C27.6595 36.0991 28.2089 36.2089 28.8682 36.5386L29.4177 35.11C28.6485 34.7804 27.9891 34.6705 27.2199 34.6705C26.4507 34.6705 25.7913 34.8903 25.3518 35.2199C24.9122 35.5496 24.6924 36.0991 24.6924 36.6485C24.6924 36.9782 24.6924 37.3079 24.8023 37.5276C24.9122 37.7474 25.0221 37.9672 25.2419 38.187C25.4616 38.4068 25.7913 38.6265 26.2309 38.7364C26.6704 38.9562 27.0001 39.0661 27.11 39.176C27.2199 39.2859 27.3298 39.2859 27.3298 39.3958C27.3298 39.5057 27.4397 39.5057 27.4397 39.6155C27.4397 39.7254 27.3298 39.8353 27.2199 39.9452C27.2199 39.9452 27.0001 39.9452 26.7803 39.9452Z" fill="white"/>
<path d="M35.3515 39.9452C35.0219 39.9452 34.6922 39.9452 34.3625 39.8353C34.0329 39.7254 33.5933 39.6155 33.2636 39.3958V41.0441C33.5933 41.154 33.923 41.2639 34.2526 41.3738C34.5823 41.4837 34.912 41.4837 35.3515 41.4837C35.901 41.4837 36.3406 41.3738 36.7801 41.2639C37.2197 41.0441 37.4395 40.8243 37.6592 40.4947C37.879 40.165 37.9889 39.8353 37.9889 39.3958C37.9889 38.9562 37.879 38.5166 37.6592 38.2969C37.4395 37.9672 36.9999 37.7474 36.4504 37.4177C35.7911 37.0881 35.4614 36.9782 35.3515 36.8683C35.2416 36.7584 35.1318 36.6485 35.1318 36.5386C35.1318 36.4287 35.1318 36.3188 35.2417 36.209C35.3515 36.0991 35.5713 36.0991 35.7911 36.0991C36.2307 36.0991 36.7801 36.2089 37.4395 36.5386L37.9889 35.11C37.2197 34.7804 36.5603 34.6705 35.7911 34.6705C35.0219 34.6705 34.3625 34.8903 33.923 35.2199C33.4834 35.5496 33.2636 36.0991 33.2636 36.6485C33.2636 36.9782 33.2636 37.3079 33.3735 37.5276C33.4834 37.7474 33.5933 37.9672 33.8131 38.187C34.0329 38.4068 34.3625 38.6265 34.8021 38.7364C35.2416 38.9562 35.5713 39.0661 35.6812 39.176C35.7911 39.2859 35.901 39.2859 35.901 39.3958C35.901 39.5057 36.0109 39.5057 36.0109 39.6155C36.0109 39.7254 35.901 39.8353 35.7911 39.9452C35.901 39.9452 35.6812 39.9452 35.3515 39.9452Z" fill="white"/>
<path d="M47.9891 37.8572C47.9891 36.7583 47.6595 35.9891 47.11 35.4396C46.5606 34.8902 45.6814 34.5605 44.5825 34.5605H42.2748V41.3737H44.4726C45.5715 41.3737 46.4507 41.044 47.11 40.4946C47.6595 39.8352 47.9891 38.9561 47.9891 37.8572ZM45.6814 39.3957C45.4616 39.7253 45.0221 39.8352 44.4726 39.8352H44.0331V35.9891H44.5825C45.132 35.9891 45.4616 36.099 45.6814 36.4286C45.9012 36.7583 46.0111 37.1979 46.0111 37.8572C46.121 38.5165 46.0111 39.066 45.6814 39.3957Z" fill="white"/>
<path d="M56.231 40.055L56.5607 41.3737H58.5387L56.3409 34.5605H53.9233L51.7255 41.3737H53.7035L54.0332 40.055H56.231ZM54.9123 36.4286C55.0222 36.099 55.0222 35.7693 55.0222 35.6594C55.0222 35.8792 55.1321 36.099 55.242 36.5385C55.3519 36.9781 55.4618 37.3077 55.4618 37.5275L55.7914 38.6264H54.3629C54.6925 37.5275 54.9123 36.7583 54.9123 36.4286Z" fill="white"/>
<path d="M45.7912 29.6154L38.7582 22.6923L31.8352 29.6154H27.8791L42.4945 15H27.2198L12.4945 29.6154H7V30.6044H67V29.6154H45.7912Z" fill="white"/>
<path d="M7 46.3187H28.0989L34.9121 53.1319L41.8352 46.3187H45.5714L31.0659 60.7143H46.4506L54.033 53.1319L60.956 46.3187H67V45.2198H7V46.3187Z" fill="white"/>
<path fill-rule="evenodd" clip-rule="evenodd" d="M37.5 75C58.2104 75 75 58.2107 75 37.5C75 16.7893 58.2104 0 37.5 0C16.7896 0 0 16.7893 0 37.5C0 58.2107 16.7896 75 37.5 75ZM37.5 74C57.6582 74 74 57.6584 74 37.5C74 17.3416 57.6582 1 37.5 1C17.3418 1 1 17.3416 1 37.5C1 57.6584 17.3418 74 37.5 74Z" fill="white"/>
</svg>
