<svg width="75" height="75" viewBox="0 0 75 75" fill="none" xmlns="http://www.w3.org/2000/svg">
<path d="M37.5 73.5C57.3823 73.5 73.5 57.3823 73.5 37.5C73.5 17.6177 57.3823 1.5 37.5 1.5C17.6177 1.5 1.5 17.6177 1.5 37.5C1.5 57.3823 17.6177 73.5 37.5 73.5Z" fill="#EA4C89"/>
<path fill-rule="evenodd" clip-rule="evenodd" d="M37.5 0C16.7977 0 0 16.7977 0 37.5C0 58.2023 16.7977 75 37.5 75C58.1616 75 75 58.2023 75 37.5C75 16.7977 58.1616 0 37.5 0ZM62.2695 17.2858C66.7435 22.7359 69.4279 29.6909 69.5093 37.2153C68.4518 37.0119 57.8769 34.8563 47.2207 36.1984C46.9767 35.6698 46.7733 35.1003 46.5293 34.5309C45.8786 32.9854 45.1464 31.3991 44.4143 29.8943C56.2094 25.0949 61.5781 18.1806 62.2695 17.2858ZM37.5 5.53145C45.6345 5.53145 53.0776 8.58188 58.731 13.5846C58.1616 14.3981 53.3215 20.865 41.9333 25.1356C36.6865 15.4962 30.8704 7.60575 29.9756 6.38558C32.3752 5.81616 34.897 5.53145 37.5 5.53145ZM23.8748 8.54122C24.7289 9.68002 30.423 17.6112 35.7511 27.0472C20.7836 31.0331 7.5651 30.9518 6.14154 30.9518C8.2158 21.0277 14.9268 12.7712 23.8748 8.54122ZM5.45011 37.5406C5.45011 37.2153 5.45011 36.89 5.45011 36.5645C6.83297 36.6052 22.3699 36.8086 38.3541 32.0093C39.2896 33.7988 40.1437 35.6291 40.9571 37.4594C40.5504 37.5814 40.103 37.7034 39.6963 37.8253C23.1833 43.1535 14.3981 57.7142 13.666 58.9344C8.58188 53.2809 5.45011 45.7565 5.45011 37.5406ZM37.5 69.5499C30.0977 69.5499 23.2646 67.0282 17.8552 62.7983C18.4247 61.6188 24.9323 49.0916 42.9907 42.7874C43.0721 42.7468 43.1128 42.7468 43.1942 42.706C47.7088 54.379 49.5391 64.1811 50.0271 66.9875C46.1632 68.6551 41.9333 69.5499 37.5 69.5499ZM55.3552 64.0592C55.0298 62.1068 53.3216 52.7522 49.1324 41.2419C59.1785 39.6557 67.9636 42.2587 69.0618 42.6248C67.6789 51.532 62.5542 59.2191 55.3552 64.0592Z" fill="#C32361"/>
</svg>
