<svg width="75" height="75" viewBox="0 0 75 75" fill="none" xmlns="http://www.w3.org/2000/svg">
<g clip-path="url(#clip0_901_52)">
<path d="M16.2303 37.5006C16.2303 25.5639 25.3122 16.7142 37.5 16.7142C40.023 16.7142 42.4137 17.1027 44.6226 17.8176V28.0677C42.4173 27.1839 40.0023 26.7186 37.5105 26.7171C37.5069 26.7171 37.5036 26.7168 37.5 26.7168C37.4979 26.7168 37.4961 26.7171 37.4937 26.7171C27.2889 26.7204 19.5939 34.2594 19.5939 44.2563C19.5939 46.5129 19.9893 48.6423 20.7141 50.5902C17.8821 47.067 16.2303 42.5523 16.2303 37.5006ZM58.7697 6.6198V37.5006C58.7697 37.9716 58.7499 38.4363 58.7214 38.8977C58.0335 50.0565 49.1463 58.2858 37.5 58.2858C37.2429 58.2858 36.9897 58.2762 36.7353 58.2681C28.911 57.9063 23.1024 52.0041 23.1024 44.2563C23.1024 39.993 24.7698 36.345 27.5562 33.8373C27.2085 34.9626 27.0141 36.1872 27.0141 37.5006C27.0141 43.8729 31.3662 48.2844 37.5 48.2844C43.4754 48.2844 47.7477 44.0919 47.9649 37.9842H47.9853L48.1314 13.0176V1.5384C44.7597 0.542997 41.1942 0 37.5 0C16.7892 0 0 16.7892 0 37.5C0 58.2108 16.7892 75 37.5 75C58.2105 75 75 58.2108 75 37.5C75 24.6891 68.5719 13.3845 58.7697 6.6198Z" fill="white"/>
</g>
<defs>
<clipPath id="clip0_901_52">
<rect width="75" height="75" fill="white"/>
</clipPath>
</defs>
</svg>
