<svg width="75" height="75" viewBox="0 0 75 75" fill="none" xmlns="http://www.w3.org/2000/svg">
<g clip-path="url(#clip0_701_43)">
<path d="M10.044 49.2597C7.8255 49.2597 6.20768 48.9348 5.19174 48.2839C4.17521 47.633 3.66724 46.8805 3.66724 46.0252C3.66724 45.5048 3.97084 44.9655 4.57804 44.408C5.75582 44.7175 6.77176 44.8722 7.62704 44.8722H12.1261C12.8574 44.8722 13.5083 45.0305 14.0783 45.3465C14.6482 45.6625 14.9335 46.1303 14.9335 46.7499C14.9335 48.4233 13.3039 49.2597 10.044 49.2597ZM6.70679 29.8322C7.32049 29.2374 8.18522 28.9397 9.30039 28.9397C10.4032 28.9397 11.2431 29.225 11.8196 29.795C12.3961 30.3649 12.6843 31.0655 12.6843 31.8959C12.6843 34.0649 11.5313 35.1493 9.22596 35.1493C8.148 35.1493 7.30454 34.864 6.69793 34.294C6.09013 33.724 5.78653 32.9804 5.78653 32.0631C5.78653 31.1706 6.09368 30.427 6.70679 29.8322ZM17.2483 42.3347C16.1633 41.3495 14.6671 40.8569 12.7587 40.8569H7.18109C6.32581 40.8569 5.6873 40.6649 5.26616 40.2804C4.84502 39.8965 4.63415 39.4747 4.63415 39.0164C4.63415 38.1859 5.0677 37.5728 5.93538 37.1759C7.26142 37.4984 8.4203 37.659 9.41202 37.659C11.705 37.659 13.5484 37.1139 14.943 36.0229C16.3375 34.9325 17.0345 33.5569 17.0345 31.8959C17.0345 30.4087 16.2909 29.0578 14.8036 27.8428C15.2123 27.0992 15.6305 26.6597 16.0582 26.5227C16.4858 26.3868 16.9843 26.3183 17.5549 26.3183H18.8561V23.0649H17.2761C14.8343 23.0649 13.3281 24.261 12.7587 26.6532C11.5313 26.3927 10.3228 26.2628 9.13323 26.2628C6.53018 26.2628 4.59044 26.8145 3.31402 27.9172C2.0376 29.0206 1.39909 30.3525 1.39909 31.9143C1.39909 33.7613 2.26677 35.2113 4.00214 36.2645C2.00629 37.2314 1.00866 38.5326 1.00866 40.1688C1.00866 41.2473 1.59106 42.2822 2.75643 43.2739C0.93424 44.1416 0.0234375 45.4115 0.0234375 47.0848C0.0234375 50.4682 3.05354 52.1604 9.11433 52.1604C12.337 52.1604 14.7693 51.5774 16.4114 50.4126C18.0534 49.2473 18.875 47.7789 18.875 46.0063C18.875 44.5438 18.3322 43.32 17.2483 42.3347Z" fill="white"/>
<path d="M26.7773 27.3035C25.8228 28.1097 25.0727 29.3862 24.5275 31.1333V26.6532H20.6982V45.4303H24.9368V36.7293C24.9368 35.4405 25.2865 34.1079 25.987 32.7323C26.6876 31.3566 28.1158 30.6685 30.2723 30.6685V26.1139C30.0366 26.1015 29.8512 26.0956 29.7147 26.0956C28.7106 26.0956 27.7313 26.4984 26.7773 27.3035Z" fill="white"/>
<path d="M39.829 42.3252C38.5272 42.3252 37.5018 41.7865 36.7516 40.7079C36.0021 39.6294 35.627 38.0683 35.627 36.0228C35.627 34.1268 35.9802 32.6052 36.6867 31.4588C37.3931 30.3123 38.4775 29.7393 39.9406 29.7393C41.3535 29.7393 42.4001 30.294 43.0824 31.4032C43.7634 32.5125 44.1048 34.0275 44.1048 35.9484C44.1048 40.2 42.6789 42.3252 39.829 42.3252ZM39.9589 26.2627C37.3063 26.2627 35.1716 27.1859 33.5544 29.0329C31.9365 30.8793 31.1279 33.1912 31.1279 35.9673C31.1279 38.5455 31.8592 40.832 33.3217 42.8272C34.7841 44.8231 36.9034 45.8207 39.6801 45.8207C42.2578 45.8207 44.3865 44.9188 46.0664 43.1155C47.745 41.3122 48.585 38.9295 48.585 35.9673C48.585 33.0919 47.7764 30.7553 46.1591 28.9585C44.5413 27.1611 42.4746 26.2627 39.9589 26.2627Z" fill="white"/>
<path d="M67.7636 39.2763L64.473 26.6532H60.6243L57.3898 39.2763L53.6905 26.6532H49.1914L54.9728 45.4304H58.896L62.2604 32.2674L65.6443 45.4304H69.4553L73.2024 32.6437H69.6685L67.7636 39.2763Z" fill="white"/>
<path d="M74.9586 26.6532H71.3893L70.3379 30.3135H73.886L74.9586 26.6532Z" fill="#008000"/>
</g>
<defs>
<clipPath id="clip0_701_43">
<rect width="75" height="29.1835" fill="white" transform="translate(0 23)"/>
</clipPath>
</defs>
</svg>
