<svg width="75" height="75" viewBox="0 0 75 75" fill="none" xmlns="http://www.w3.org/2000/svg">
<path d="M60.4482 60.6602L61.6172 63.1H59.2881L60.4482 60.6602Z" fill="white"/>
<path d="M17.585 61.9338C17.585 63.4943 18.8779 64.7504 20.4062 64.7504C21.9365 64.7504 23.2295 63.4943 23.2295 61.9338C23.2295 60.3735 21.9365 59.0552 20.4062 59.0552C18.8779 59.0552 17.585 60.3735 17.585 61.9338Z" fill="white"/>
<path d="M43.1973 59.2024V60.8384H45.8682C46.6143 60.8384 46.8799 60.512 46.8799 60.1097C46.8799 59.7019 46.6143 59.2024 45.8682 59.2024H43.1973Z" fill="white"/>
<path fill-rule="evenodd" clip-rule="evenodd" d="M75 0H0V75H75V0ZM34.3838 46.1556C34.3838 50.7966 38.085 54.4303 42.8076 54.4303C45.4482 54.4303 47.8145 53.2872 49.4668 51.2135C49.4629 51.2209 49.5488 51.113 49.5957 51.0532C49.5156 50.995 47.1289 49.2474 47.0566 49.1927C47.0186 49.2405 46.9404 49.3453 46.9404 49.3453C45.9561 50.6573 44.4502 51.4113 42.8076 51.4113C40.0205 51.4113 37.6641 49.0072 37.6641 46.1556C37.6641 43.3123 40.0205 41.0199 42.8076 41.0199C44.4697 41.0199 45.917 41.7852 46.8877 43.176L49.5928 41.3756L49.4668 41.2177C47.8145 39.1438 45.4512 38 42.8076 38C38.085 38 34.3838 41.52 34.3838 46.1556ZM16.3564 38.4005H19.458V54.0283H16.3564V47.2091H9.88574V54.0283H6.78223V47.2091H4V44.2749H6.78223V38.4005H9.88574V44.2749H16.3564V38.4005ZM23.3848 44.2749V38.4005H33.5518C33.5566 38.4005 33.5518 41.3314 33.5518 41.3314H26.4297V44.2749H33.0996V47.2091H26.4297V51.0975H33.5518V54.0283H23.3848V47.2091H20.5596V44.2749H23.3848ZM52.0039 55.9618V54.4309H55.9326V55.9618H52.0039ZM56.0117 66.2089H57.9766L58.6768 64.6284H62.2256L62.9219 66.2089H64.8857L60.4482 57.0736L56.0117 66.2089ZM50.3281 60.8333V57.5956H55.9326V59.2109H52.0039V60.8333H55.6807V62.4504H52.0039V64.5935H55.9326V66.2089H50.3281V62.4504H48.8838V60.8333H50.3281ZM10.9023 61.0012L6.83789 57.3749V66.2089H8.54785V61.1388L10.9023 63.2369L13.2588 61.1388V66.2089H14.9678V57.3749L10.9023 61.0012ZM15.7656 61.9338C15.7656 59.3784 17.8037 57.3749 20.4062 57.3749C23.0137 57.3749 25.0518 59.3784 25.0518 61.9338C25.0518 64.4917 23.0137 66.4304 20.4062 66.4304C17.8037 66.4304 15.7656 64.4917 15.7656 61.9338ZM25.8477 66.2089H27.5576V61.2059C27.5576 61.2059 32.9678 66.5513 32.9912 66.5725V57.5956H31.2793V62.3253L25.8486 57.2329L25.8477 66.2089ZM33.915 57.5956H40.5635V59.2439H38.0938V66.2089H36.3848V59.2439H33.915V57.5956ZM65.0713 57.5956V66.2089H70V64.5609H66.7803V57.5956H65.0713ZM46.6104 62.3916L46.5 62.4146L48.7549 66.2089H46.7373L44.6006 62.4478H43.1973V66.2089H41.4863V62.4478H40.0996V60.8333H41.4863V57.5934H45.7344C47.5479 57.5934 48.5879 58.4894 48.5879 60.0988C48.5879 61.4097 47.8848 62.1323 46.6104 62.3916Z" fill="white"/>
</svg>
