<svg width="75" height="75" viewBox="0 0 75 75" fill="none" xmlns="http://www.w3.org/2000/svg">
<path d="M30.4827 52.6747H29.5187V54.5609H28.5406V49.5496H30.4827C31.5176 49.5496 32.1368 50.2614 32.1368 51.1115C32.1368 51.965 31.5176 52.6747 30.4827 52.6747ZM30.4332 50.4227H29.5187V51.7955H30.4332C30.8779 51.7955 31.1579 51.5211 31.1579 51.1115C31.1579 50.7048 30.8775 50.4227 30.4332 50.4227Z" fill="white"/>
<path d="M37.5689 54.5609L37.2736 53.6754H35.4924L35.1902 54.5609H34.1694L35.9925 49.55H36.7589L38.5901 54.5609H37.5689ZM36.4009 51.0282L35.7672 52.8496H37.0129L36.4009 51.0282Z" fill="white"/>
<path d="M43.98 54.5609L43.0014 52.5624H42.2973V54.5609H41.3192V49.5496H43.2822C44.303 49.5496 44.909 50.2482 44.909 51.0846C44.909 51.7874 44.4793 52.2244 43.9936 52.4003L45.1121 54.5605H43.98V54.5609ZM43.2199 50.4227H42.2973V51.746H43.2199C43.6488 51.746 43.93 51.4716 43.93 51.0846C43.93 50.6979 43.6488 50.4227 43.2199 50.4227Z" fill="white"/>
<path d="M48.0337 49.5496H49.0122V54.5609H48.0337V49.5496Z" fill="white"/>
<path d="M53.6715 54.6036C52.9097 54.6036 52.3323 54.4414 51.8403 53.9417L52.4732 53.3088C52.7898 53.6259 53.2187 53.7304 53.6847 53.7304C54.2621 53.7304 54.5706 53.5132 54.5706 53.1112C54.5706 52.9345 54.5216 52.7882 54.4166 52.6883C54.3184 52.597 54.2045 52.5483 53.9732 52.5138L53.3668 52.4288C52.937 52.3653 52.6212 52.2317 52.3963 52.014C52.1578 51.7742 52.0366 51.452 52.0366 51.0282C52.0366 50.1334 52.6993 49.5082 53.7829 49.5082C54.4733 49.5082 54.9726 49.678 55.4007 50.0932L54.7823 50.7052C54.4665 50.4035 54.0858 50.36 53.7555 50.36C53.2336 50.36 52.9806 50.6493 52.9806 50.9928C52.9806 51.1209 53.0228 51.2523 53.1282 51.3522C53.2272 51.4452 53.3881 51.5211 53.5929 51.5489L54.1836 51.6338C54.6423 51.6965 54.9312 51.822 55.1416 52.0204C55.4092 52.2735 55.5287 52.6401 55.5287 53.0826C55.5283 54.0535 54.7196 54.6036 53.6715 54.6036Z" fill="white"/>
<path d="M36.2464 21.3205C36.7218 21.673 36.974 22.1834 36.974 22.8141V43.8503C36.974 44.633 36.6232 45.0602 36.2033 45.3431C36.9706 45.3431 49.858 45.3431 50.0356 45.3431C50.065 45.1984 50.5007 43.0143 50.6565 42.2176C49.4138 43.9796 47.9795 43.9975 44.5911 44.0274H44.3513C42.5636 44.0274 40.793 43.8682 40.2041 43.8192L40.1038 43.8047V32.617H46.0262C46.444 32.617 46.8891 32.9635 47.1593 33.3254C47.1593 32.7843 47.1593 31.2079 47.1593 30.6612C46.8891 31.0286 46.4436 31.3722 46.0262 31.3722H40.1038V22.5619H40.2143C40.2724 22.5619 45.6763 22.6345 46.3433 22.6345C47.8203 22.6345 48.5812 23.0382 49.2235 23.7056C49.2145 23.2567 49.168 21.4984 49.1624 21.3205C48.9567 21.3205 36.9612 21.3205 36.2464 21.3205Z" fill="white"/>
<path d="M56.0643 24.9474C53.8955 27.1968 52.6596 30.2758 52.6596 33.4035C52.6596 36.8789 54.0645 40.0403 56.6092 42.3025C59.0481 44.4691 62.3183 45.6627 65.8125 45.6627C67.6433 45.6627 71.2271 45.3546 74.6885 43.2806C74.8054 41.8254 74.9488 39.806 75 38.9081C72.1988 44.3099 67.8946 44.3172 66.4535 44.3172C59.2875 44.3172 56.0771 38.6026 56.0771 32.946C56.0771 29.9767 57.0108 27.3061 58.7033 25.4271C60.5571 23.3633 63.2473 22.2785 66.4855 22.2785C68.2403 22.2785 72.4728 22.8316 74.8216 27.7034C74.7751 26.7492 74.624 24.5762 74.5126 22.9976C71.3338 21.6175 68.7639 21 66.2004 21C62.0571 21.0004 58.5475 22.3665 56.0643 24.9474Z" fill="white"/>
<path d="M24.3691 22.8141V30.0714C25.4817 30.1909 26.5468 30.339 27.571 30.5174V22.8141C27.571 22.1394 27.787 21.6508 28.2227 21.3205H23.7072C24.1442 21.6606 24.3691 22.1625 24.3691 22.8141ZM32.5853 35.2214L32.6148 32.5944C28.9447 31.3773 24.0286 30.6403 18.6029 30.6317C16.1986 30.6317 13.892 30.7781 11.745 31.0465V22.8141C11.745 22.1834 11.9793 21.67 12.4231 21.3205H7.87994C8.31522 21.6606 8.54268 22.1625 8.54268 22.8141V31.5548C4.8658 32.2764 1.87343 33.3834 0 34.7238L0.294031 35.1557C2.20544 34.0376 5.08088 33.1948 8.54225 32.725V43.8503C8.54225 44.4802 8.30797 44.9786 7.85689 45.3431H12.4368C11.9797 44.9688 11.7446 44.464 11.7446 43.8503V32.4036C13.9193 32.2692 16.2523 32.2645 18.678 32.4117C20.6555 32.535 22.5653 32.7561 24.3687 33.0514V43.8503C24.3687 44.4802 24.1383 44.9786 23.6859 45.3431H28.2419C27.7985 44.9919 27.5706 44.5037 27.5706 43.8503V33.6894C29.4193 34.1226 31.1122 34.6347 32.5853 35.2214Z" fill="white"/>
</svg>
