<svg width="75" height="75" viewBox="0 0 75 75" fill="none" xmlns="http://www.w3.org/2000/svg">
<path d="M37.1508 72.8052C17.459 72.8052 1.48805 56.8345 1.48805 37.1413C1.48805 17.4503 17.459 1.47853 37.1508 1.47853C56.844 1.47853 72.8147 17.4503 72.8147 37.1413C72.8147 56.8345 56.844 72.8052 37.1508 72.8052ZM37.1508 0.0688845C16.6814 0.0686035 0.078125 16.6691 0.078125 37.141C0.078125 57.613 16.6814 74.216 37.1508 74.216C57.6228 74.216 74.2272 57.6127 74.2272 37.141C74.2269 16.6694 57.6225 0.0686035 37.1505 0.0686035" fill="white"/>
<path d="M52.6318 57.7997H24.5979L25.8977 55.2693V19.9193H31.6363V55.2308H35.6916V41.4392H40.9842V55.2153H45.5743V48.9391C45.5743 45.1348 45.3753 39.8421 41.0944 37.1088L43.5871 36.1921C48.7499 38.1124 51.3343 43.1218 51.3343 49.7237V55.2704L52.6318 57.7997ZM34.8097 15.7238C34.894 15.7238 34.9561 15.7261 35.0253 15.7272H37.1855C41.4527 15.7272 43.2373 16.4804 45.2581 18.0373C48.1974 20.3431 48.6611 23.6874 48.6611 25.3618C48.6611 27.4391 48.0263 29.6301 46.4691 31.4194C45.3143 32.802 43.3098 34.8114 39.3753 35.281C36.6867 35.6078 34.701 35.4873 33.7089 35.3794V33.2683C34.1515 33.3267 34.8004 33.3863 35.6857 33.3863C38.3625 33.3863 40.258 32.048 41.4117 30.6041C42.7218 29.0129 42.9958 27.5153 43.0546 26.1768H35.6916V24.1011H42.9888C42.8028 22.697 42.2652 21.628 41.3965 20.5764C39.723 18.4979 37.3578 18.1525 35.7992 18.1525L25.2876 18.1491L24.0462 15.7238H34.8097ZM37.1507 5.72363C19.8038 5.72363 5.73486 19.7929 5.73486 37.1417C5.73486 54.492 19.8038 68.5598 37.1504 68.5598C54.5007 68.5598 68.5696 54.492 68.5696 37.1417C68.5696 19.7929 54.5007 5.72363 37.1504 5.72363" fill="white"/>
</svg>
