<svg width="75" height="75" viewBox="0 0 75 75" fill="none" xmlns="http://www.w3.org/2000/svg">
<g clip-path="url(#clip0)">
<path d="M0 50.2122H14.5833V52.3233H0V50.2122Z" fill="white"/>
<path d="M0 46.1816H14.5833V48.2927H0V46.1816Z" fill="white"/>
<path d="M4.16699 42.1514H10.417V44.2625H4.16699V42.1514Z" fill="white"/>
<path d="M4.16699 38.1211H10.417V40.2322H4.16699V38.1211Z" fill="white"/>
<path d="M4.16699 34.0908H10.417V36.2019H4.16699V34.0908Z" fill="white"/>
<path d="M4.16699 30.0605H10.417V32.1716H4.16699V30.0605Z" fill="white"/>
<path d="M14.5833 26.0303H0V28.1414H14.5833V26.0303Z" fill="white"/>
<path d="M14.5833 22H0V24.1111H14.5833V22Z" fill="white"/>
<path d="M16.667 48.2927H39.0912C39.47 47.6402 39.7541 46.9301 39.9246 46.1816H16.667V48.2927Z" fill="white"/>
<path d="M37.3482 38.1211H20.833V40.2322H39.0906C38.6171 39.4261 38.03 38.716 37.3482 38.1211Z" fill="white"/>
<path d="M20.833 34.0908V36.2019H37.3482C38.0489 35.607 38.636 34.8969 39.0906 34.0908H20.833Z" fill="white"/>
<path d="M39.0912 26.0303H16.667V28.1414H39.9246C39.7352 27.3929 39.4511 26.6828 39.0912 26.0303Z" fill="white"/>
<path d="M32.1973 22H16.667V24.1111H37.5571C36.1556 22.8061 34.2617 22 32.1973 22Z" fill="white"/>
<path d="M27.083 30.0605H20.833V32.1716H27.083V30.0605Z" fill="white"/>
<path d="M33.333 32.1716H39.8671C40.0565 31.4999 40.1512 30.7898 40.1512 30.0605H33.333V32.1716Z" fill="white"/>
<path d="M20.833 42.1514H27.083V44.2625H20.833V42.1514Z" fill="white"/>
<path d="M33.333 42.1514V44.2625H40.1512C40.1512 43.5332 40.0565 42.8231 39.8671 42.1514H33.333Z" fill="white"/>
<path d="M16.667 52.3041L32.1973 52.3233C34.2806 52.3233 36.1556 51.5172 37.5571 50.2122H16.667V52.3041Z" fill="white"/>
<path d="M41.667 50.2122H52.0837V52.3233H41.667V50.2122Z" fill="white"/>
<path d="M41.667 46.1816H52.0837V48.2927H41.667V46.1816Z" fill="white"/>
<path d="M45.8335 42.1514H52.0835V44.2625H45.8335V42.1514Z" fill="white"/>
<path d="M45.8335 38.1211H52.0835V40.2322H45.8335V38.1211Z" fill="white"/>
<path d="M54.9814 26.0303H41.667V28.1414H55.7011L54.9814 26.0303Z" fill="white"/>
<path d="M53.5988 22H41.667V24.1111H54.3185L53.5988 22Z" fill="white"/>
<path d="M64.5835 50.2122H75.0002V52.3233H64.5835V50.2122Z" fill="white"/>
<path d="M64.5835 46.1816H75.0002V48.2927H64.5835V46.1816Z" fill="white"/>
<path d="M64.5835 42.1514H70.8335V44.2625H64.5835V42.1514Z" fill="white"/>
<path d="M64.5835 38.1211H70.8335V40.2322H64.5835V38.1211Z" fill="white"/>
<path d="M64.5835 36.2019H70.8335V34.0908H64.5835H58.9206L58.3335 35.7989L57.7464 34.0908H52.0835H45.8335V36.2019H52.0835V34.2635L52.7464 36.2019H63.9206L64.5835 34.2635V36.2019Z" fill="white"/>
<path d="M70.833 30.0605H60.3027L59.583 32.1716H70.833V30.0605Z" fill="white"/>
<path d="M63.0678 22L62.3481 24.1111H74.9997V22H63.0678Z" fill="white"/>
<path d="M58.3335 52.3041L59.0532 50.2122H57.6138L58.3335 52.3041Z" fill="white"/>
<path d="M56.9506 48.2927H59.7157L60.4543 46.1816H56.2119L56.9506 48.2927Z" fill="white"/>
<path d="M55.5492 44.2625H61.1174L61.856 42.1514H54.8105L55.5492 44.2625Z" fill="white"/>
<path d="M54.1474 40.2322H62.5186L63.2383 38.1211H53.4277L54.1474 40.2322Z" fill="white"/>
<path d="M45.8335 32.1716H57.0835L56.3638 30.0605H45.8335V32.1716Z" fill="white"/>
<path d="M60.9658 28.1414H74.9999V26.0303H61.6855L60.9658 28.1414Z" fill="white"/>
</g>
<defs>
<clipPath id="clip0">
<rect width="75" height="31.5" fill="white" transform="translate(0 22)"/>
</clipPath>
</defs>
</svg>
