<svg width="75" height="75" viewBox="0 0 75 75" fill="none" xmlns="http://www.w3.org/2000/svg">
<path d="M4.00049 37.9005C3.90049 19.2005 19.0005 4.10049 37.7005 4.00049C56.4005 3.90049 71.5005 19.0005 71.6005 37.7005C71.7005 56.4005 56.6005 71.5005 37.9005 71.6005H37.8005C19.2005 71.6005 4.10049 56.5005 4.00049 37.9005ZM5.00049 37.9005C5.00049 56.0005 19.7005 70.7005 37.8005 70.7005C55.9005 70.7005 70.6005 56.0005 70.6005 37.9005C70.6005 19.8005 56.0005 5.20049 37.9005 5.10049H37.8005C19.7005 5.10049 5.00049 19.8005 5.00049 37.9005Z" fill="white"/>
<path d="M28.0005 27.5005C29.0005 27.1005 30.0005 26.5005 30.8005 25.7005C31.1005 27.1005 31.7005 28.4005 32.6005 29.6005C31.8005 29.9005 31.0005 30.3005 30.4005 30.9005C30.0005 29.6005 29.1005 28.4005 28.0005 27.5005ZM39.4005 21.5005C38.2005 21.4005 37.0005 21.6005 35.8005 22.0005C35.6005 20.1005 34.9005 18.3005 33.8005 16.8005C33.9005 16.7005 36.7005 15.6005 38.5005 15.9005C40.3005 16.2005 39.5005 20.0005 39.4005 21.5005ZM41.1005 55.1005L42.2005 55.8005H33.0005C33.9005 55.3005 34.7005 54.9005 34.8005 54.5005C35.2005 52.8005 35.2005 50.9005 34.8005 49.2005C34.0005 47.6005 32.6005 46.4005 30.9005 45.8005C30.3005 45.9005 29.7005 46.2005 29.1005 46.5005L30.1005 47.2005C29.2005 47.8005 28.4005 48.6005 27.9005 49.6005C27.4005 49.0005 26.8005 48.5005 26.2005 48.0005C26.7005 47.0005 27.5005 46.2005 28.5005 45.6005L29.0005 46.1005C29.4005 45.8005 29.8005 45.5005 30.3005 45.4005C28.6005 44.8005 26.8005 44.3005 25.0005 44.1005V45.9005C23.0005 45.7005 21.1005 45.9005 19.2005 46.6005C19.2005 46.4005 18.6005 43.6005 19.3005 41.9005C20.0005 40.2005 23.8005 42.0005 25.4005 42.3005C25.3005 42.7005 25.2005 43.2005 25.1005 43.6005C26.4005 43.4005 27.6005 43.3005 28.9005 43.4005C28.3005 42.5005 27.4005 41.8005 26.4005 41.4005C25.3005 40.9005 24.4005 40.3005 23.5005 39.5005L22.0005 40.3005C21.7005 38.4005 20.7005 36.5005 19.4005 35.1005C20.9005 34.8005 22.3005 34.2005 23.6005 33.5005C23.8005 34.9005 24.1005 37.8005 25.1005 39.1005C24.5005 39.1005 24.0005 39.3005 23.5005 39.6005C24.5005 40.3005 25.7005 40.8005 26.9005 41.1005C26.8005 40.6005 26.8005 40.1005 26.9005 39.6005H26.2005C26.1005 38.7005 26.1005 37.9005 26.3005 37.0005C27.0005 36.9005 27.7005 37.0005 28.3005 37.2005C27.9005 38.0005 27.7005 38.8005 27.7005 39.7005H26.9005C26.9005 40.3005 27.0005 40.8005 27.3005 41.3005C28.6005 41.7005 29.8005 42.6005 30.5005 43.8005L33.2005 44.5005C33.2005 44.0005 33.1005 43.5005 32.9005 43.1005L32.2005 43.3005C32.0005 42.4005 31.6005 41.6005 31.0005 41.0005C31.6005 40.7005 32.3005 40.4005 33.0005 40.3005C33.4005 41.1005 33.6005 41.9005 33.7005 42.8005H32.9005C33.2005 43.3005 33.4005 43.8005 33.5005 44.4005L35.1005 45.1005C35.3005 42.7005 34.5005 40.4005 33.0005 38.6005L31.4005 39.9005C30.9005 37.8005 27.8005 35.1005 27.8005 35.1005C29.0005 34.5005 30.1005 33.7005 31.1005 32.7005C33.0005 33.7005 34.4005 36.6005 34.7005 37.4005L33.2005 38.2005L35.0005 39.7005L35.7005 40.7005C36.1005 40.4005 36.4005 40.0005 36.7005 39.5005L35.7005 39.2005C36.4005 38.2005 36.8005 37.1005 37.0005 35.9005C37.7005 36.4005 38.5005 36.7005 39.3005 36.8005C39.2005 38.0005 38.8005 39.2005 38.1005 40.2005L37.1005 39.7005C36.9005 40.3005 36.6005 40.9005 36.1005 41.4005C36.7005 42.7005 37.1005 44.2005 37.7005 45.6005C41.3005 42.6005 40.3005 36.9005 39.6005 34.3005L37.9005 35.6005C36.7005 33.7005 35.1005 32.2005 33.2005 31.1005C33.3005 31.0005 35.4005 28.4005 37.4005 27.9005C39.4005 27.4005 40.4005 31.8005 41.3005 33.5005L40.0005 34.2005C40.9005 35.6005 41.6005 37.1005 41.9005 38.7005L43.5005 37.4005L42.8005 37.1005C43.3005 36.1005 44.1005 35.3005 45.1005 34.7005C45.6005 35.3005 46.2005 35.8005 46.8005 36.2005C45.9005 36.8005 45.1005 37.6005 44.6005 38.6005L43.7005 37.7005C43.0005 38.6005 42.4005 39.7005 42.0005 40.8005C42.1005 42.0005 42.0005 43.3005 41.7005 44.5005C42.7005 43.9005 43.8005 43.6005 45.0005 43.5005C45.3005 42.3005 46.0005 41.4005 47.1005 40.8005L46.0005 39.5005C47.2005 38.3005 49.5005 36.1005 50.8005 35.8005C52.0005 36.9005 52.9005 38.2005 53.5005 39.7005C51.6005 40.1005 49.8005 41.0005 48.3005 42.3005L47.4005 41.0005C46.8005 41.7005 46.4005 42.5005 46.3005 43.4005C47.8005 43.3005 49.4005 43.4005 50.9005 43.6005C51.0005 43.0005 51.1005 42.5005 51.0005 41.9005C51.8005 41.8005 55.0005 41.9005 56.8005 43.2005C56.4005 44.5005 56.1005 45.9005 56.1005 47.3005C56.1005 47.3005 52.4005 45.7005 50.3005 46.1005C50.5005 45.5005 50.7005 44.8005 50.8005 44.2005C48.7005 44.0005 46.6005 44.3005 44.6005 45.1005L46.6005 45.5005C46.7005 45.3005 46.8005 45.0005 46.8005 44.8005C47.9005 45.0005 48.9005 45.6005 49.7005 46.4005C49.1005 46.9005 48.7005 47.6005 48.5005 48.3005C47.7005 47.6005 46.7005 47.1005 45.6005 46.8005L46.3005 45.7005C45.4005 45.6005 44.5005 45.5005 43.6005 45.6005L42.0005 46.7005C41.4005 47.3005 40.9005 48.0005 40.6005 48.8005C40.9005 49.2005 41.0005 49.7005 41.0005 50.2005C41.1005 51.0005 40.7005 51.7005 40.0005 52.1005C40.0005 53.2005 40.4005 54.3005 41.1005 55.1005ZM40.1005 50.0005C40.2005 49.6005 40.0005 49.2005 39.6005 49.0005C39.2005 49.1005 39.0005 49.5005 39.0005 49.9005C38.9005 50.3005 39.1005 50.7005 39.5005 50.9005C39.9005 50.8005 40.2005 50.4005 40.1005 50.0005ZM39.4005 48.2005C38.7005 48.4005 38.4005 49.2005 38.6005 50.3005C38.5005 49.6005 38.8005 48.9005 39.3005 48.4005C39.6005 48.2005 39.4005 48.1005 39.4005 48.1005V48.2005ZM33.3005 27.1005C32.4005 25.3005 31.1005 23.7005 29.5005 22.5005C29.6005 22.4005 31.8005 20.4005 33.6005 20.0005C35.4005 19.6005 36.0005 23.9005 36.5005 25.4005L34.8005 26.1005C35.0005 26.7005 35.0005 27.3005 34.8005 27.9005C34.7005 27.4005 34.6005 26.8005 34.4005 26.3005L33.3005 27.1005ZM19.8005 37.2005C19.4005 37.7005 19.3005 39.9005 19.4005 41.4005C17.5005 40.8005 15.5005 40.6005 13.5005 40.7005C13.9005 39.3005 14.1005 37.9005 13.9005 36.5005C14.8005 37.2005 18.4005 37.3005 19.8005 37.2005ZM28.9005 32.4005C27.5005 32.5005 26.2005 33.0005 25.0005 33.7005C24.9005 31.8005 23.1005 29.1005 22.2005 27.7005C24.0005 27.6005 27.2005 26.0005 27.2005 26.0005C26.8005 27.8005 27.8005 30.6005 28.9005 32.4005ZM43.9005 23.6005C42.9005 23.4005 41.9005 23.4005 40.9005 23.6005C40.7005 22.3005 40.5005 19.6005 41.0005 18.5005C42.3005 18.3005 43.6005 18.4005 44.9005 18.8005C44.2005 20.3005 43.8005 21.9005 43.9005 23.6005ZM27.2005 25.2005C27.2005 25.2005 25.5005 22.7005 24.1005 22.2005C24.9005 21.6005 25.6005 20.8005 26.1005 20.0005C27.4005 20.7005 28.4005 21.7005 29.1005 23.0005C28.3005 23.6005 27.7005 24.4005 27.2005 25.2005ZM46.7005 32.1005C48.6005 31.1005 50.5005 27.5005 50.5005 27.5005C51.4005 28.6005 52.4005 29.5005 53.6005 30.3005C53.0005 32.4005 50.6005 34.5005 49.9005 34.9005C49.6005 34.5005 49.3005 34.1005 48.9005 33.8005C48.1005 34.6005 47.5005 35.7005 47.2005 36.8005C47.4005 35.6005 47.9005 34.5005 48.5005 33.5005L46.7005 32.1005ZM55.7005 42.4005C55.9005 41.7005 55.0005 39.4005 54.2005 37.8005C56.5005 37.6005 58.7005 36.9005 60.7005 35.7005C60.9005 37.3005 61.4005 38.9005 62.2005 40.3005C61.0005 40.1005 57.1005 41.6005 55.7005 42.4005ZM52.6005 33.9005C54.2005 32.9005 56.4005 30.8005 56.9005 29.1005C57.9005 30.5005 59.1005 31.7005 60.5005 32.7005C59.1005 33.5005 56.3005 35.2005 55.4005 36.7005C54.7005 35.5005 53.8005 34.6005 52.6005 33.9005ZM44.6005 25.9005C45.2005 24.7005 46.5005 21.3005 46.4005 20.3005C47.6005 21.0005 49.0005 21.4005 50.4005 21.6005C49.5005 23.3005 48.9005 25.2005 48.7005 27.1005C47.4005 26.4005 45.3005 25.6005 44.7005 25.8005L44.6005 25.9005ZM43.3005 31.9005C43.0005 33.2005 42.4005 34.5005 41.6005 35.6005C42.2005 34.4005 42.5005 33.1005 42.6005 31.7005L41.0005 31.3005C42.0005 30.0005 42.2005 27.1005 42.3005 25.7005C43.7005 26.4005 45.1005 26.9005 46.6005 27.1005C45.4005 28.1005 44.6005 30.7005 44.4005 32.5005L43.3005 31.9005ZM37.4005 24.0005C38.4005 24.0005 39.3005 23.8005 40.2005 23.4005C40.2005 24.8005 40.5005 26.1005 41.0005 27.4005C40.0005 27.4005 39.1005 27.6005 38.2005 28.0005C38.2005 26.6005 37.9005 25.3005 37.4005 24.0005ZM56.5005 24.9005C55.5005 25.7005 54.6005 26.7005 54.1005 27.9005C53.4005 27.4005 52.7005 27.1005 51.9005 26.9005C52.3005 25.9005 53.0005 23.9005 53.7005 23.3005C54.7005 23.6005 55.7005 24.1005 56.5005 24.8005V24.9005ZM19.8005 32.6005C19.2005 31.0005 16.7005 29.1005 16.7005 29.1005C17.6005 28.5005 18.4005 27.9005 19.1005 27.1005C20.5005 27.9005 21.6005 29.0005 22.3005 30.4005C21.4005 31.0005 20.5005 31.7005 19.8005 32.6005Z" fill="white"/>
<path d="M20.5005 55.4005H55.0005V55.9005H20.5005V55.4005ZM18.5005 58.8005H18.3005C13.2005 54.1005 10.1005 47.7005 9.40049 40.8005C9.50049 40.6005 9.60049 40.6005 9.80049 40.6005L9.90049 40.7005C10.6005 47.4005 13.7005 53.7005 18.7005 58.3005C18.8005 58.4005 18.8005 58.6005 18.7005 58.7005H18.5005V58.8005ZM56.8005 58.8005C56.7005 58.7005 56.7005 58.5005 56.8005 58.4005C61.8005 53.8005 64.9005 47.5005 65.6005 40.7005C65.5005 40.5005 65.6005 40.4005 65.8005 40.3005C66.0005 40.2005 66.1005 40.3005 66.2005 40.5005C66.2005 40.6005 66.2005 40.7005 66.1005 40.8005C65.4005 47.7005 62.2005 54.1005 57.2005 58.8005H56.8005Z" fill="white"/>
<path d="M27.9609 61.6534L27.8739 63.0005H24.0776V62.7717C24.1421 62.7674 24.228 62.7588 24.3355 62.7459C24.4429 62.7309 24.5127 62.7158 24.5449 62.7008C24.6137 62.6686 24.6609 62.6267 24.6867 62.5751C24.7147 62.5235 24.7286 62.458 24.7286 62.3785V59.0914C24.7286 59.0205 24.7168 58.9582 24.6932 58.9045C24.6695 58.8486 24.6201 58.8035 24.5449 58.7691C24.4869 58.7412 24.4085 58.7165 24.3097 58.695C24.213 58.6735 24.1357 58.6606 24.0776 58.6564V58.4275H27.6161V59.5297H27.3744C27.3314 59.3664 27.238 59.1935 27.094 59.0108C26.9523 58.8261 26.8169 58.7251 26.688 58.7079C26.6214 58.6993 26.5419 58.6929 26.4495 58.6886C26.3571 58.6843 26.2519 58.6821 26.1337 58.6821H25.415V60.4997H25.9307C26.0961 60.4997 26.2164 60.4847 26.2916 60.4546C26.3689 60.4224 26.4366 60.3697 26.4946 60.2967C26.5419 60.2344 26.5816 60.1517 26.6139 60.0485C26.6482 59.9433 26.6708 59.8444 26.6815 59.7521H26.9232V61.5406H26.6815C26.673 61.4375 26.6493 61.329 26.6106 61.2151C26.5741 61.0991 26.5355 61.0153 26.4946 60.9638C26.428 60.88 26.3518 60.8252 26.2658 60.7994C26.182 60.7736 26.0703 60.7607 25.9307 60.7607H25.415V62.1336C25.415 62.2711 25.4247 62.3796 25.444 62.4591C25.4634 62.5386 25.501 62.5987 25.5568 62.6396C25.6127 62.6804 25.689 62.7072 25.7857 62.7201C25.8823 62.7309 26.0198 62.7362 26.1981 62.7362C26.269 62.7362 26.3625 62.7362 26.4785 62.7362C26.5945 62.7362 26.6923 62.7319 26.7718 62.7233C26.8534 62.7148 26.9372 62.6997 27.0231 62.6782C27.1112 62.6546 27.1735 62.6234 27.2101 62.5848C27.3089 62.4816 27.412 62.3259 27.5194 62.1175C27.629 61.9069 27.6988 61.7523 27.7289 61.6534H27.9609Z" fill="white"/>
<path d="M30.4424 61.444C30.5305 61.5213 30.5981 61.6105 30.6454 61.7114C30.6927 61.8124 30.7163 61.9359 30.7163 62.082C30.7163 62.3764 30.6057 62.617 30.3844 62.8039C30.1652 62.9908 29.8806 63.0843 29.5304 63.0843C29.3456 63.0843 29.1748 63.051 29.018 62.9844C28.8633 62.9178 28.7526 62.8565 28.686 62.8007L28.6216 63.0102H28.3799L28.3477 61.9048H28.57C28.5872 61.9886 28.6237 62.0863 28.6796 62.1981C28.7355 62.3098 28.8031 62.4108 28.8826 62.501C28.9664 62.5955 29.0663 62.675 29.1823 62.7395C29.3005 62.8039 29.4326 62.8361 29.5787 62.8361C29.785 62.8361 29.944 62.79 30.0557 62.6976C30.1674 62.603 30.2232 62.4688 30.2232 62.2947C30.2232 62.2045 30.205 62.1272 30.1685 62.0627C30.1341 61.9961 30.0825 61.9381 30.0138 61.8887C29.9429 61.8393 29.8559 61.7952 29.7527 61.7565C29.6496 61.7157 29.5347 61.676 29.4079 61.6373C29.3069 61.6072 29.1941 61.5664 29.0695 61.5149C28.9471 61.4611 28.8418 61.3988 28.7537 61.3279C28.6592 61.2527 28.5818 61.1604 28.5217 61.0508C28.4615 60.9412 28.4314 60.8123 28.4314 60.6641C28.4314 60.4041 28.5281 60.1839 28.7215 60.0034C28.9148 59.823 29.1737 59.7327 29.4981 59.7327C29.6228 59.7327 29.7495 59.7488 29.8784 59.7811C30.0095 59.8133 30.1158 59.852 30.1975 59.8971L30.2716 59.7295H30.5036L30.552 60.7511H30.3296C30.2845 60.5233 30.1867 60.3386 30.0363 60.1968C29.8881 60.0528 29.7065 59.9809 29.4917 59.9809C29.3155 59.9809 29.177 60.0249 29.076 60.113C28.975 60.2011 28.9245 60.3074 28.9245 60.432C28.9245 60.5287 28.9406 60.6093 28.9729 60.6737C29.0072 60.7382 29.0577 60.793 29.1243 60.8381C29.1888 60.8811 29.2693 60.9219 29.366 60.9606C29.4648 60.9971 29.5862 61.039 29.7302 61.0862C29.872 61.1314 30.0052 61.184 30.1298 61.2441C30.2565 61.3043 30.3607 61.3709 30.4424 61.444Z" fill="white"/>
<path d="M33.1623 62.8619C33.0227 62.9199 32.8905 62.9683 32.7659 63.0069C32.6413 63.0478 32.4888 63.0682 32.3083 63.0682C32.0419 63.0682 31.8539 63.0016 31.7443 62.8684C31.6369 62.733 31.5832 62.5429 31.5832 62.298V60.1452H31.0096V59.8358H31.5961V58.8465H32.1826V59.8358H33.0946V60.1452H32.1891V61.9209C32.1891 62.0541 32.1934 62.1658 32.202 62.2561C32.2127 62.3441 32.2363 62.4215 32.2729 62.4881C32.3072 62.5504 32.3588 62.5977 32.4275 62.6299C32.4963 62.6621 32.5887 62.6782 32.7047 62.6782C32.7584 62.6782 32.8368 62.6739 32.9399 62.6653C33.0452 62.6546 33.1193 62.6417 33.1623 62.6267V62.8619Z" fill="white"/>
<path d="M34.5867 62.6299C34.5867 62.7502 34.5427 62.8533 34.4546 62.9393C34.3687 63.0231 34.2655 63.0649 34.1452 63.0649C34.0249 63.0649 33.9207 63.0231 33.8326 62.9393C33.7467 62.8533 33.7037 62.7502 33.7037 62.6299C33.7037 62.5096 33.7467 62.4065 33.8326 62.3205C33.9207 62.2324 34.0249 62.1884 34.1452 62.1884C34.2655 62.1884 34.3687 62.2324 34.4546 62.3205C34.5427 62.4065 34.5867 62.5096 34.5867 62.6299Z" fill="white"/>
<path d="M39.9943 63.0005H36.9747V62.5622C37.0327 62.4956 37.1133 62.4215 37.2164 62.3399C37.3195 62.2561 37.442 62.1658 37.5838 62.0691C37.6697 62.0111 37.7729 61.9478 37.8932 61.879C38.0135 61.8103 38.1499 61.7351 38.3024 61.6534C38.4722 61.5632 38.6022 61.4837 38.6924 61.4149C38.7848 61.3462 38.8686 61.2613 38.9438 61.1604C38.9932 61.0938 39.0329 61.011 39.063 60.9122C39.0931 60.8112 39.1081 60.6684 39.1081 60.4836C39.1081 60.215 39.0361 60.0185 38.8922 59.8939C38.7482 59.7671 38.5635 59.7037 38.3379 59.7037C38.1982 59.7037 38.0661 59.7316 37.9415 59.7875C37.8169 59.8412 37.7234 59.9164 37.6611 60.0131C37.6762 60.0818 37.6944 60.1635 37.7159 60.258C37.7396 60.3525 37.7514 60.4449 37.7514 60.5352C37.7514 60.6168 37.717 60.6898 37.6482 60.7543C37.5816 60.8166 37.4817 60.8478 37.3485 60.8478C37.2411 60.8478 37.1584 60.8112 37.1004 60.7382C37.0424 60.663 37.0134 60.5631 37.0134 60.4385C37.0134 60.3225 37.0456 60.2065 37.1101 60.0904C37.1745 59.9723 37.2669 59.8638 37.3872 59.7649C37.5054 59.6683 37.6515 59.5899 37.8255 59.5297C37.9995 59.4695 38.1875 59.4395 38.3895 59.4395C38.8299 59.4395 39.179 59.5383 39.4368 59.7359C39.6968 59.9314 39.8268 60.1936 39.8268 60.5223C39.8268 60.6791 39.8031 60.822 39.7559 60.9509C39.7107 61.0798 39.6366 61.1937 39.5335 61.2925C39.4196 61.4021 39.2864 61.4966 39.1339 61.5761C38.9814 61.6534 38.7482 61.7619 38.4346 61.9016C38.2477 61.9854 38.0736 62.0734 37.9125 62.1658C37.7514 62.2561 37.6192 62.3441 37.5161 62.4301H39.9943V63.0005Z" fill="white"/>
<path d="M43.6166 59.9905C43.7541 60.156 43.8562 60.3504 43.9228 60.5738C43.9915 60.7951 44.0259 61.0272 44.0259 61.2699C44.0259 61.5621 43.984 61.8242 43.9002 62.0563C43.8164 62.2861 43.7015 62.4774 43.5554 62.6299C43.405 62.7867 43.2267 62.9049 43.0204 62.9844C42.8142 63.0639 42.5843 63.1036 42.3308 63.1036C42.0536 63.1036 41.8065 63.0574 41.5896 62.965C41.3726 62.8727 41.1964 62.7459 41.061 62.5848C40.9192 62.4172 40.8129 62.2217 40.742 61.9982C40.6732 61.7727 40.6389 61.5299 40.6389 61.2699C40.6389 61.0143 40.6722 60.779 40.7388 60.5642C40.8075 60.3493 40.9139 60.1549 41.0578 59.9809C41.1953 59.8133 41.3726 59.6812 41.5896 59.5845C41.8065 59.4878 42.0547 59.4395 42.334 59.4395C42.6283 59.4395 42.8808 59.4889 43.0913 59.5877C43.3019 59.6865 43.477 59.8208 43.6166 59.9905ZM43.3137 61.2699C43.3137 60.7586 43.2256 60.3622 43.0494 60.0808C42.8754 59.7993 42.638 59.6586 42.3372 59.6586C42.0321 59.6586 41.7915 59.7993 41.6153 60.0808C41.4392 60.3622 41.3511 60.7586 41.3511 61.2699C41.3511 61.7555 41.4349 62.1465 41.6024 62.443C41.7722 62.7373 42.0149 62.8845 42.3308 62.8845C42.6466 62.8845 42.8894 62.7373 43.0591 62.443C43.2288 62.1465 43.3137 61.7555 43.3137 61.2699Z" fill="white"/>
<path d="M47.6707 59.9905C47.8082 60.156 47.9103 60.3504 47.9769 60.5738C48.0456 60.7951 48.08 61.0272 48.08 61.2699C48.08 61.5621 48.0381 61.8242 47.9543 62.0563C47.8705 62.2861 47.7556 62.4774 47.6095 62.6299C47.4591 62.7867 47.2808 62.9049 47.0745 62.9844C46.8683 63.0639 46.6384 63.1036 46.3849 63.1036C46.1077 63.1036 45.8606 63.0574 45.6437 62.965C45.4267 62.8727 45.2505 62.7459 45.1151 62.5848C44.9733 62.4172 44.867 62.2217 44.7961 61.9982C44.7273 61.7727 44.693 61.5299 44.693 61.2699C44.693 61.0143 44.7263 60.779 44.7929 60.5642C44.8616 60.3493 44.968 60.1549 45.1119 59.9809C45.2494 59.8133 45.4267 59.6812 45.6437 59.5845C45.8606 59.4878 46.1088 59.4395 46.3881 59.4395C46.6824 59.4395 46.9349 59.4889 47.1454 59.5877C47.356 59.6865 47.5311 59.8208 47.6707 59.9905ZM47.3678 61.2699C47.3678 60.7586 47.2797 60.3622 47.1035 60.0808C46.9295 59.7993 46.6921 59.6586 46.3913 59.6586C46.0862 59.6586 45.8456 59.7993 45.6694 60.0808C45.4933 60.3622 45.4052 60.7586 45.4052 61.2699C45.4052 61.7555 45.489 62.1465 45.6565 62.443C45.8263 62.7373 46.069 62.8845 46.3849 62.8845C46.7007 62.8845 46.9435 62.7373 47.1132 62.443C47.2829 62.1465 47.3678 61.7555 47.3678 61.2699Z" fill="white"/>
<path d="M51.7893 63.0005H48.7696V62.5622C48.8276 62.4956 48.9082 62.4215 49.0113 62.3399C49.1145 62.2561 49.2369 62.1658 49.3787 62.0691C49.4647 62.0111 49.5678 61.9478 49.6881 61.879C49.8084 61.8103 49.9448 61.7351 50.0974 61.6534C50.2671 61.5632 50.3971 61.4837 50.4873 61.4149C50.5797 61.3462 50.6635 61.2613 50.7387 61.1604C50.7881 61.0938 50.8278 61.011 50.8579 60.9122C50.888 60.8112 50.903 60.6684 50.903 60.4836C50.903 60.215 50.8311 60.0185 50.6871 59.8939C50.5432 59.7671 50.3584 59.7037 50.1328 59.7037C49.9932 59.7037 49.861 59.7316 49.7364 59.7875C49.6118 59.8412 49.5184 59.9164 49.4561 60.0131C49.4711 60.0818 49.4894 60.1635 49.5108 60.258C49.5345 60.3525 49.5463 60.4449 49.5463 60.5352C49.5463 60.6168 49.5119 60.6898 49.4432 60.7543C49.3766 60.8166 49.2767 60.8478 49.1435 60.8478C49.036 60.8478 48.9533 60.8112 48.8953 60.7382C48.8373 60.663 48.8083 60.5631 48.8083 60.4385C48.8083 60.3225 48.8405 60.2065 48.905 60.0904C48.9694 59.9723 49.0618 59.8638 49.1821 59.7649C49.3003 59.6683 49.4464 59.5899 49.6204 59.5297C49.7944 59.4695 49.9824 59.4395 50.1844 59.4395C50.6248 59.4395 50.9739 59.5383 51.2317 59.7359C51.4917 59.9314 51.6217 60.1936 51.6217 60.5223C51.6217 60.6791 51.598 60.822 51.5508 60.9509C51.5057 61.0798 51.4315 61.1937 51.3284 61.2925C51.2146 61.4021 51.0814 61.4966 50.9288 61.5761C50.7763 61.6534 50.5432 61.7619 50.2295 61.9016C50.0426 61.9854 49.8686 62.0734 49.7074 62.1658C49.5463 62.2561 49.4142 62.3441 49.311 62.4301H51.7893V63.0005Z" fill="white"/>
<path d="M10.8731 37.3988L10.8971 38.6466L10.7584 38.6492C10.7552 38.6141 10.7503 38.5634 10.7438 38.4971C10.7373 38.4308 10.7286 38.3841 10.7177 38.357C10.6999 38.3144 10.6765 38.2835 10.6475 38.2646C10.6172 38.2456 10.576 38.2366 10.5239 38.2376L8.51648 38.2762C8.47092 38.2771 8.4333 38.2849 8.40363 38.2998C8.37266 38.3148 8.34728 38.3491 8.32747 38.4029C8.3126 38.4422 8.29923 38.492 8.28736 38.5521C8.27417 38.611 8.26663 38.6593 8.26475 38.6971L8.1261 38.6998L8.10214 37.452L8.24079 37.4493C8.24287 37.4896 8.249 37.5377 8.25919 37.5935C8.26807 37.6493 8.27943 37.6979 8.29324 37.7394C8.30982 37.7885 8.33584 37.8212 8.37131 37.8375C8.40679 37.8537 8.44601 37.8614 8.48897 37.8606L10.4945 37.8221C10.5374 37.8213 10.5756 37.8114 10.6091 37.7926C10.6413 37.7724 10.6667 37.7394 10.6854 37.6934C10.6953 37.6659 10.7061 37.6214 10.718 37.56C10.7285 37.4972 10.734 37.4444 10.7345 37.4014L10.8731 37.3988Z" fill="white"/>
<path d="M8.58177 33.4176C8.57945 33.454 8.58425 33.5107 8.59619 33.5878C8.60812 33.6649 8.62284 33.7207 8.64034 33.7551C8.66808 33.805 8.7271 33.843 8.81742 33.869C8.90786 33.8937 9.0237 33.9131 9.16493 33.9272L11.1843 34.1288L11.1674 34.2978L8.74414 35.7441L10.1668 35.8861C10.3262 35.902 10.4496 35.9045 10.5371 35.8936C10.6247 35.8814 10.6887 35.8564 10.7291 35.8186C10.7606 35.7916 10.7933 35.7327 10.8272 35.6419C10.8611 35.551 10.8802 35.4908 10.8845 35.4611L11.0225 35.4749L10.9096 36.606L10.7716 36.5923C10.7725 36.557 10.7661 36.4968 10.7523 36.4117C10.7373 36.3265 10.7217 36.2726 10.7056 36.25C10.6739 36.2011 10.6219 36.1645 10.5498 36.1402C10.4763 36.1159 10.3495 36.0947 10.1694 36.0768L8.81084 35.9412C8.75124 35.9352 8.6906 35.9397 8.62893 35.9544C8.56726 35.9692 8.51848 35.9925 8.4826 36.0242C8.43518 36.0666 8.39257 36.1265 8.35475 36.2039C8.31576 36.2798 8.29252 36.3423 8.28501 36.3912L8.14702 36.3775L8.22557 35.5903L10.4833 34.2492L9.17139 34.1183C9.01072 34.1023 8.88659 34.1003 8.799 34.1125C8.71012 34.1246 8.64949 34.1486 8.6171 34.1847C8.58886 34.2185 8.55895 34.2757 8.52735 34.3563C8.49588 34.4356 8.47671 34.4965 8.46986 34.539L8.33186 34.5252L8.44378 33.4038L8.58177 33.4176Z" fill="white"/>
<path d="M9.86294 30.3756L9.83354 30.5071C9.78524 30.5083 9.72655 30.5172 9.65747 30.5338C9.5874 30.5488 9.52029 30.5685 9.45614 30.5929C9.38917 30.6179 9.32896 30.6485 9.27554 30.6846C9.22112 30.7191 9.18605 30.7567 9.17032 30.7972C9.15644 30.8354 9.14155 30.8841 9.12566 30.9433C9.10977 31.0024 9.09615 31.0574 9.08479 31.1083L9.06008 31.2188L11.2235 31.7023C11.2654 31.7117 11.3062 31.7115 11.3457 31.7016C11.384 31.6915 11.4177 31.6663 11.4467 31.6261C11.4607 31.6052 11.4834 31.5603 11.5148 31.4913C11.5466 31.421 11.5676 31.3656 11.578 31.3252L11.7133 31.3555L11.4279 32.6326L11.2925 32.6023C11.2979 32.5662 11.3049 32.511 11.3135 32.4369C11.3223 32.3615 11.3242 32.3085 11.319 32.278C11.3118 32.2324 11.2951 32.1967 11.2689 32.1708C11.2417 32.1433 11.202 32.1238 11.1499 32.1122L8.96934 31.6248L8.94463 31.7354C8.93583 31.7748 8.92617 31.824 8.91565 31.883C8.90385 31.9417 8.89517 31.9985 8.88959 32.0533C8.8853 32.0964 8.90092 32.1459 8.93644 32.2019C8.97098 32.2563 9.01258 32.3089 9.06124 32.3598C9.10991 32.4107 9.16338 32.458 9.22165 32.5017C9.27866 32.5452 9.32685 32.5773 9.36623 32.5981L9.33641 32.7315L8.60256 32.5675L9.12909 30.2116L9.86294 30.3756Z" fill="white"/>
<path d="M12.0399 27.6449L12.7899 27.9638L12.0308 30.1265L11.9005 30.0808C11.9109 30.0432 11.9232 29.9925 11.9374 29.9287C11.9503 29.8645 11.9557 29.8217 11.9535 29.8004C11.9489 29.7548 11.9345 29.7195 11.9103 29.6945C11.8865 29.6682 11.852 29.6472 11.8067 29.6313L9.93407 28.974C9.89368 28.9598 9.85582 28.9541 9.8205 28.9568C9.78395 28.9591 9.74837 28.9783 9.71375 29.0142C9.68624 29.0417 9.65648 29.0814 9.62448 29.1334C9.59291 29.1842 9.5701 29.2257 9.55605 29.2579L9.4257 29.2121L10.1333 27.1963L10.7611 27.4167L10.7128 27.5544C10.6112 27.5462 10.494 27.5649 10.3612 27.6104C10.2275 27.6542 10.143 27.7111 10.1074 27.7811C10.0892 27.8173 10.0696 27.8613 10.0487 27.9131C10.0278 27.9649 10.0055 28.0244 9.98187 28.0917L9.83816 28.5011L10.8736 28.8646L10.9767 28.5708C11.0098 28.4766 11.0253 28.405 11.0232 28.3562C11.0203 28.3057 11.0038 28.2566 10.9738 28.2089C10.9478 28.1696 10.9086 28.1304 10.8563 28.0914C10.8032 28.0508 10.7514 28.0182 10.7009 27.9936L10.7493 27.8559L11.7682 28.2135L11.7199 28.3512C11.6594 28.3355 11.5929 28.3272 11.5203 28.3265C11.4469 28.3241 11.3914 28.3294 11.3539 28.3423C11.2928 28.3635 11.2463 28.396 11.2145 28.4398C11.183 28.4824 11.1533 28.5435 11.1254 28.623L11.0223 28.9168L11.8044 29.1913C11.8827 29.2188 11.9465 29.235 11.9956 29.2398C12.0448 29.2447 12.0866 29.2353 12.121 29.2117C12.1554 29.188 12.186 29.1499 12.2126 29.0974C12.2381 29.0445 12.2687 28.9672 12.3043 28.8657C12.3185 28.8253 12.3372 28.772 12.3604 28.7059C12.3836 28.6398 12.4007 28.5833 12.4117 28.5363C12.4231 28.4881 12.4313 28.4373 12.4362 28.3841C12.4404 28.3292 12.4351 28.2874 12.4204 28.2589C12.3814 28.182 12.3133 28.0921 12.216 27.9892C12.118 27.8847 12.0438 27.814 11.9935 27.7771L12.0399 27.6449Z" fill="white"/>
<path d="M14.2663 24.7342L13.938 25.4057C13.632 25.4405 13.3646 25.4767 13.1356 25.5144C12.9073 25.5508 12.6685 25.5953 12.4193 25.6477L12.2947 25.9026L13.0857 26.2893C13.1267 26.3093 13.1662 26.3206 13.2041 26.3232C13.2409 26.3252 13.2778 26.3091 13.3148 26.275C13.3333 26.2579 13.359 26.2247 13.3918 26.1754C13.4246 26.1261 13.4505 26.0836 13.4694 26.0478L13.5942 26.1088L13.0786 27.1635L12.9538 27.1025C12.9652 27.0732 12.9809 27.0308 13.0008 26.9752C13.0213 26.9184 13.032 26.8772 13.033 26.8515C13.0349 26.8089 13.025 26.7728 13.0031 26.7433C12.9818 26.7126 12.9483 26.686 12.9026 26.6637L11.0991 25.782C11.0581 25.7619 11.0189 25.75 10.9815 25.7463C10.9442 25.7425 10.9067 25.7583 10.8691 25.7937C10.8442 25.8178 10.8162 25.8513 10.7851 25.8942C10.7528 25.9365 10.7275 25.9734 10.7091 26.0051L10.5843 25.9441L11.1472 24.7927C11.1987 24.6873 11.2583 24.5937 11.3258 24.512C11.3921 24.4297 11.4677 24.3628 11.5524 24.3113C11.6348 24.2616 11.7247 24.2336 11.822 24.2275C11.9182 24.2208 12.0197 24.2435 12.1263 24.2957C12.2224 24.3427 12.3002 24.3988 12.3597 24.4642C12.4192 24.5296 12.4619 24.6042 12.4877 24.688C12.5123 24.7654 12.5253 24.8501 12.5267 24.9423C12.527 25.0339 12.5182 25.1305 12.5004 25.2322C12.7235 25.1887 12.9104 25.1538 13.0613 25.1274C13.2127 25.0998 13.3971 25.0658 13.6143 25.0253C13.7098 25.0081 13.7846 24.9873 13.8386 24.9629C13.8921 24.9368 13.9394 24.9084 13.9805 24.8777C14.0107 24.8546 14.041 24.8223 14.0715 24.7806C14.1021 24.7389 14.1254 24.7031 14.1415 24.6732L14.2663 24.7342ZM11.9545 24.7496C11.8033 24.6757 11.6626 24.6606 11.5323 24.7044C11.4008 24.7476 11.2964 24.8483 11.2191 25.0065L11.073 25.3053L12.1435 25.8286L12.2561 25.5984C12.3351 25.4367 12.3495 25.2767 12.299 25.1185C12.2474 24.9596 12.1326 24.8367 11.9545 24.7496Z" fill="white"/>
<path d="M16.0089 22.071L15.3819 23.0402L15.2655 22.9648C15.3152 22.876 15.3499 22.7984 15.3695 22.7321C15.3899 22.6646 15.3881 22.6231 15.364 22.6075C15.3542 22.6012 15.3415 22.5945 15.3258 22.5875C15.3102 22.5805 15.2955 22.5756 15.2818 22.5729L14.6351 22.429L14.1078 23.244C14.1645 23.3242 14.2149 23.3925 14.2591 23.4489C14.3039 23.5043 14.3454 23.5552 14.3836 23.6016C14.4214 23.6462 14.4533 23.6808 14.4793 23.7054C14.5053 23.7299 14.5276 23.7482 14.5461 23.7603C14.5899 23.7886 14.646 23.776 14.7146 23.7227C14.7833 23.6694 14.8477 23.601 14.9079 23.5175L15.0244 23.5928L14.4578 24.4685L14.3414 24.3931C14.3576 24.3633 14.3746 24.3239 14.3923 24.2749C14.409 24.2252 14.4174 24.181 14.4176 24.1423C14.4164 24.0795 14.4077 24.0258 14.3915 23.9813C14.3743 23.936 14.3447 23.8835 14.3027 23.8237C14.0865 23.5179 13.842 23.1767 13.5692 22.8002C13.2964 22.4236 13.0535 22.0882 12.8407 21.7939L12.9256 21.6627L15.4346 22.1856C15.4879 22.1968 15.5343 22.2005 15.574 22.1967C15.6137 22.1929 15.6581 22.1806 15.7073 22.1597C15.7389 22.1444 15.7732 22.1201 15.8103 22.0867C15.8463 22.0527 15.8737 22.0223 15.8925 21.9957L16.0089 22.071ZM14.451 22.3937L13.3209 22.1627L13.999 23.0922L14.451 22.3937Z" fill="white"/>
<path d="M17.1702 20.7134C17.0644 20.8407 16.9376 20.9422 16.79 21.0178C16.6432 21.0924 16.4852 21.1357 16.3159 21.1476C16.1475 21.1585 15.9736 21.1342 15.7941 21.0749C15.6136 21.0147 15.4381 20.9137 15.2676 20.7721C15.0972 20.6304 14.9645 20.476 14.8695 20.3089C14.7734 20.1409 14.7136 19.9691 14.6901 19.7936C14.6666 19.6198 14.6795 19.4483 14.7287 19.279C14.7779 19.1097 14.8613 18.9543 14.9788 18.813C15.0663 18.7077 15.1585 18.6233 15.2554 18.5597C15.3523 18.4962 15.4564 18.4454 15.5676 18.4074L15.5166 18.2607L15.6166 18.1404L16.3888 18.7594L16.2863 18.8827C16.1988 18.8371 16.0986 18.7945 15.9857 18.7549C15.8718 18.7145 15.7669 18.6908 15.6709 18.6839C15.5627 18.6754 15.4621 18.6883 15.369 18.7228C15.2749 18.7565 15.1924 18.816 15.1216 18.9012C15.0408 18.9984 14.9869 19.1071 14.96 19.2271C14.9339 19.3462 14.9376 19.4713 14.971 19.6024C15.0039 19.7281 15.0692 19.8595 15.167 19.9968C15.2648 20.134 15.391 20.2668 15.5453 20.3952C15.6817 20.5085 15.8212 20.5956 15.9638 20.6565C16.1063 20.7156 16.2473 20.7489 16.3868 20.7564C16.5254 20.7631 16.655 20.7428 16.7756 20.6956C16.897 20.6474 17.0028 20.5691 17.0928 20.4608C17.1603 20.3796 17.2098 20.2945 17.2414 20.2055C17.272 20.1157 17.2871 20.0282 17.2867 19.9431C17.2842 19.8563 17.2708 19.7705 17.2463 19.6857C17.2218 19.6009 17.1865 19.519 17.1403 19.44L17.2882 19.3722C17.4281 19.6342 17.4845 19.8744 17.4574 20.0926C17.4293 20.3099 17.3335 20.5169 17.1702 20.7134Z" fill="white"/>
<path d="M18.5219 16.2038L18.4243 16.2986C18.3829 16.2729 18.3284 16.248 18.2609 16.2238C18.1934 16.1978 18.1259 16.1773 18.0583 16.1624C17.9879 16.1465 17.9201 16.1391 17.8551 16.14C17.79 16.1391 17.7397 16.1514 17.704 16.1769C17.6711 16.2016 17.6316 16.2344 17.5855 16.2756C17.5394 16.3168 17.4975 16.3557 17.4598 16.3923L17.3779 16.472L18.9374 18.0761C18.9676 18.1072 19.0021 18.1295 19.041 18.1431C19.0789 18.1557 19.1212 18.153 19.1679 18.1351C19.1913 18.1252 19.2353 18.0998 19.3 18.0589C19.3656 18.0171 19.414 17.982 19.4451 17.9536L19.5426 18.0539L18.5957 18.9745L18.4982 18.8742C18.5227 18.8466 18.5591 18.8039 18.6073 18.7461C18.6565 18.6873 18.6873 18.6436 18.6998 18.615C18.7189 18.5725 18.7246 18.5331 18.7168 18.4967C18.7089 18.4585 18.6862 18.4201 18.6487 18.3815L17.0768 16.7647L16.9949 16.8444C16.9657 16.8728 16.9303 16.909 16.8888 16.953C16.8464 16.9961 16.8077 17.0392 16.7727 17.0824C16.7452 17.1164 16.7311 17.1668 16.7301 17.2337C16.7292 17.2988 16.7352 17.3662 16.7482 17.4361C16.7611 17.506 16.7801 17.5755 16.8052 17.6446C16.8293 17.7128 16.8522 17.7665 16.874 17.8059L16.7751 17.902L16.2461 17.3579L17.9929 15.6597L18.5219 16.2038Z" fill="white"/>
<path d="M21.4971 16.5127L20.5261 17.2845L20.4404 17.1766C20.4661 17.1529 20.5032 17.1184 20.5516 17.0733C20.6001 17.0282 20.6317 16.9931 20.6466 16.9681C20.6695 16.9284 20.6797 16.8913 20.6772 16.857C20.6739 16.8216 20.6561 16.7836 20.6239 16.7431L19.3823 15.181C19.3541 15.1455 19.3252 15.1206 19.2955 15.1061C19.2651 15.0907 19.2226 15.0913 19.1682 15.1082C19.1281 15.1202 19.0808 15.1396 19.0261 15.1665C18.9717 15.1916 18.929 15.2148 18.898 15.2361L18.8122 15.1283L19.7832 14.3565L19.869 14.4643C19.8384 14.4903 19.8041 14.5242 19.7662 14.5659C19.7275 14.6066 19.6959 14.6449 19.6716 14.6808C19.6427 14.7235 19.6326 14.7638 19.6412 14.8016C19.6497 14.8395 19.6673 14.8751 19.6939 14.9085L20.9343 16.4691C20.9609 16.5026 20.9917 16.5268 21.0268 16.5419C21.0622 16.5551 21.1036 16.5552 21.1511 16.5423C21.1789 16.5335 21.2205 16.5152 21.2762 16.4875C21.3321 16.4579 21.3771 16.4304 21.4114 16.4048L21.4971 16.5127Z" fill="white"/>
<path d="M22.7183 12.7292C22.8903 12.7702 23.0543 12.848 23.2104 12.9628C23.3657 13.0765 23.5026 13.2252 23.6211 13.4091C23.7403 13.5941 23.819 13.7812 23.8572 13.9703C23.8954 14.1594 23.8962 14.3409 23.8595 14.5148C23.8255 14.6855 23.7594 14.8426 23.6615 14.9863C23.5635 15.13 23.4385 15.2508 23.2863 15.3488C23.1244 15.4532 22.955 15.5197 22.7783 15.5484C22.602 15.5753 22.4297 15.5663 22.2613 15.5214C22.0944 15.4787 21.9338 15.4001 21.7796 15.2858C21.6257 15.1696 21.4931 15.0251 21.3817 14.8521C21.2597 14.6628 21.1806 14.4752 21.1445 14.2893C21.1077 14.1024 21.1063 13.9212 21.1405 13.7459C21.1743 13.5723 21.2407 13.4133 21.3397 13.269C21.4399 13.1239 21.5644 13.0034 21.7132 12.9075C21.8676 12.808 22.0318 12.7432 22.206 12.7131C22.3802 12.6829 22.551 12.6883 22.7183 12.7292ZM23.5379 14.5385C23.535 14.3994 23.5067 14.2581 23.453 14.1146C23.4003 13.9704 23.3239 13.8206 23.2238 13.6651C23.1208 13.5053 23.0104 13.3689 22.8926 13.2558C22.7759 13.142 22.6572 13.0575 22.5363 13.0021C22.4162 12.9479 22.2941 12.9243 22.1701 12.9314C22.0454 12.9374 21.9245 12.9781 21.8074 13.0536C21.676 13.1382 21.5838 13.2403 21.5306 13.3597C21.4775 13.4791 21.4544 13.6079 21.4612 13.746C21.4686 13.8776 21.5002 14.0168 21.556 14.1635C21.613 14.3096 21.6873 14.4538 21.779 14.5961C21.8805 14.7537 21.9865 14.8868 22.0967 14.9955C22.207 15.1041 22.3245 15.1879 22.4493 15.2469C22.5705 15.3052 22.6935 15.3327 22.8186 15.3296C22.9429 15.3254 23.0674 15.2831 23.1922 15.2027C23.3093 15.1273 23.3973 15.0318 23.4562 14.9165C23.515 14.8011 23.5423 14.6751 23.5379 14.5385Z" fill="white"/>
<path d="M26.5182 10.5221C26.4858 10.5388 26.4396 10.5722 26.3797 10.6221C26.3198 10.6721 26.2795 10.7134 26.259 10.7461C26.2305 10.7956 26.2284 10.8657 26.2526 10.9566C26.278 11.0468 26.321 11.1561 26.3817 11.2844L27.249 13.1191L27.0954 13.1917L24.6076 11.8595L25.2187 13.1521C25.2871 13.2969 25.3486 13.404 25.4029 13.4733C25.4585 13.5421 25.5129 13.5841 25.5662 13.5992C25.6055 13.6123 25.6728 13.61 25.7682 13.5923C25.8635 13.5746 25.925 13.5599 25.9526 13.5483L26.0119 13.6737L24.9842 14.1595L24.9249 14.0342C24.9556 14.0168 25.0038 13.9803 25.0697 13.9246C25.135 13.8678 25.1732 13.8267 25.1843 13.8014C25.2099 13.7489 25.2145 13.6855 25.1981 13.6112C25.1811 13.5357 25.1339 13.4161 25.0566 13.2525L24.4731 12.0182C24.4475 11.964 24.4125 11.9143 24.368 11.8691C24.3236 11.8238 24.2785 11.794 24.2328 11.7796C24.1721 11.7608 24.0988 11.7551 24.013 11.7625C23.9279 11.7682 23.8624 11.7805 23.8165 11.7993L23.7573 11.6739L24.4724 11.3358L26.7847 12.5803L26.2213 11.3883C26.1523 11.2424 26.09 11.135 26.0344 11.0662C25.9783 10.9962 25.9264 10.9566 25.8789 10.9474C25.8354 10.9407 25.7709 10.9445 25.6855 10.9589C25.6014 10.9728 25.5393 10.9877 25.4993 11.0037L25.4401 10.8784L26.4589 10.3967L26.5182 10.5221Z" fill="white"/>
<path d="M31.9349 10.1933C31.9938 10.422 32.002 10.6313 31.9594 10.8215C31.9168 11.0116 31.8405 11.1781 31.7305 11.3209C31.6192 11.4641 31.4839 11.5845 31.3246 11.6822C31.1652 11.7798 30.9933 11.8524 30.8089 11.8999L29.6949 12.1871L29.6602 12.0525C29.6968 12.0431 29.7434 12.0277 29.7998 12.0064C29.8572 11.9836 29.8943 11.9653 29.911 11.9515C29.9446 11.9254 29.9656 11.8944 29.9739 11.8585C29.9831 11.8211 29.9818 11.7797 29.9701 11.7342L29.4701 9.79415C29.459 9.7512 29.4415 9.71463 29.4175 9.68443C29.3949 9.65391 29.3594 9.63408 29.3113 9.62494C29.2673 9.61608 29.2214 9.6131 29.1736 9.61597C29.1259 9.61885 29.0852 9.62326 29.0517 9.6292L29.0171 9.49468L30.1917 9.19192C30.3534 9.15025 30.5191 9.13449 30.6887 9.14465C30.858 9.15354 31.0117 9.18532 31.1497 9.24C31.3366 9.31172 31.4983 9.42696 31.6348 9.58573C31.7714 9.7445 31.8714 9.94704 31.9349 10.1933ZM31.4702 10.3111C31.4237 10.1305 31.3577 9.97371 31.2723 9.84083C31.1865 9.70668 31.0835 9.59718 30.9633 9.51232C30.8495 9.43121 30.7211 9.37741 30.5782 9.35093C30.4366 9.32412 30.2881 9.33073 30.1328 9.37078C30.081 9.38412 30.0226 9.40053 29.9576 9.41998C29.8935 9.43785 29.8458 9.45148 29.8145 9.46088L30.3473 11.5279C30.3769 11.6429 30.4309 11.7138 30.5092 11.7408C30.5876 11.7677 30.6962 11.7633 30.8352 11.7275C30.9956 11.6861 31.1284 11.6216 31.2338 11.5338C31.3391 11.446 31.416 11.342 31.4645 11.2218C31.5155 11.0955 31.5407 10.9583 31.5403 10.8103C31.5408 10.6606 31.5174 10.4942 31.4702 10.3111Z" fill="white"/>
<path d="M35.2913 10.2758L35.3454 11.0901L33.0701 11.3896L33.052 11.2524C33.0903 11.2448 33.1412 11.2328 33.2045 11.2166C33.2677 11.1991 33.3084 11.1846 33.3265 11.1731C33.3652 11.1483 33.3902 11.1195 33.4016 11.0865C33.4143 11.0534 33.4175 11.0131 33.4112 10.9654L33.1519 8.99531C33.1463 8.95282 33.1343 8.91641 33.1159 8.88608C33.0973 8.85447 33.0641 8.83133 33.0163 8.81666C32.9794 8.80449 32.9304 8.79587 32.8695 8.79079C32.8098 8.78554 32.7625 8.78392 32.7274 8.78592L32.7093 8.64878L34.8301 8.36962L34.917 9.03018L34.7722 9.04925C34.7335 8.95478 34.6639 8.8585 34.5632 8.7604C34.4636 8.66085 34.3746 8.61101 34.2959 8.61088C34.2553 8.61098 34.2072 8.61339 34.1515 8.61811C34.0958 8.62282 34.0325 8.62984 33.9617 8.63916L33.531 8.69586L33.6744 9.78521L33.9834 9.74453C34.0826 9.73148 34.1535 9.71298 34.1962 9.68902C34.24 9.6636 34.2764 9.62671 34.3054 9.57836C34.3288 9.53729 34.3461 9.48458 34.3573 9.42023C34.3696 9.35442 34.3753 9.29341 34.3745 9.23719L34.5193 9.21812L34.6604 10.2901L34.5156 10.3092C34.5023 10.248 34.4796 10.1849 34.4474 10.1197C34.4163 10.053 34.3866 10.0059 34.358 9.97817C34.3115 9.93321 34.2615 9.90639 34.2079 9.89772C34.1557 9.88888 34.0877 9.88997 34.004 9.90098L33.695 9.94166L33.8033 10.7645C33.8141 10.8469 33.8285 10.9111 33.8463 10.9573C33.8642 11.0034 33.8915 11.0365 33.9282 11.0565C33.9649 11.0766 34.0127 11.0867 34.0717 11.0868C34.1305 11.0856 34.2133 11.0779 34.3202 11.0639C34.3627 11.0583 34.4187 11.0509 34.4882 11.0418C34.5577 11.0326 34.616 11.0223 34.663 11.0109C34.7112 10.9993 34.7602 10.9837 34.81 10.964C34.861 10.9429 34.8959 10.9193 34.9147 10.8933C34.9658 10.8237 35.0153 10.7222 35.0633 10.5888C35.1123 10.454 35.142 10.3557 35.1522 10.2941L35.2913 10.2758Z" fill="white"/>
<path d="M37.882 9.72031C37.9419 9.78425 37.9863 9.855 38.0152 9.93258C38.0454 10.0088 38.0615 10.0984 38.0635 10.2013C38.0684 10.446 37.982 10.6497 37.8042 10.8122C37.6264 10.9746 37.4033 11.0585 37.1351 11.0639C37.0114 11.0664 36.8873 11.05 36.7629 11.0147C36.6384 10.9781 36.5307 10.9334 36.4398 10.8805L36.3586 11.0247L36.2024 11.0279L36.156 10.0792L36.3143 10.076C36.3491 10.1926 36.389 10.2979 36.4339 10.3921C36.48 10.485 36.5397 10.5717 36.613 10.6523C36.6822 10.7278 36.7622 10.7874 36.853 10.8312C36.9451 10.8749 37.051 10.8956 37.1708 10.8932C37.2606 10.8914 37.3385 10.8781 37.4044 10.8534C37.4717 10.8286 37.5257 10.7943 37.5665 10.7505C37.6073 10.7067 37.6369 10.6559 37.6553 10.5982C37.675 10.5392 37.684 10.472 37.6825 10.3964C37.6803 10.2858 37.647 10.1835 37.5826 10.0897C37.5182 9.99463 37.4236 9.92357 37.2989 9.87657C37.2136 9.8444 37.1159 9.80924 37.0057 9.77106C36.8955 9.73158 36.8003 9.69441 36.7201 9.65954C36.5625 9.59235 36.4389 9.50299 36.3494 9.39145C36.2612 9.27859 36.2152 9.13036 36.2116 8.94677C36.2094 8.8413 36.229 8.74256 36.2701 8.65055C36.3112 8.55855 36.3708 8.47594 36.4488 8.40274C36.523 8.33352 36.6111 8.279 36.7132 8.23919C36.8153 8.19807 36.9223 8.17639 37.0343 8.17415C37.1619 8.17159 37.2762 8.18884 37.3773 8.2259C37.4796 8.26293 37.573 8.30666 37.6574 8.35707L37.7348 8.22266L37.891 8.21953L37.9251 9.13914L37.7669 9.14231C37.7361 9.03741 37.7015 8.93715 37.6632 8.84153C37.6261 8.74587 37.5781 8.65956 37.5192 8.58258C37.4617 8.50818 37.3922 8.44965 37.3106 8.407C37.2289 8.36304 37.1295 8.34223 37.0123 8.34457C36.8886 8.34705 36.784 8.38887 36.6983 8.47005C36.6127 8.55122 36.571 8.6491 36.5733 8.76368C36.5757 8.88347 36.6057 8.98252 36.6632 9.06083C36.7208 9.13783 36.8035 9.20066 36.9112 9.2493C37.0072 9.29297 37.1011 9.33082 37.1929 9.36286C37.286 9.39356 37.3759 9.42693 37.4626 9.46297C37.5414 9.49526 37.617 9.53218 37.6895 9.57371C37.7633 9.61522 37.8275 9.66409 37.882 9.72031Z" fill="white"/>
<path d="M40.2492 11.116L39.0038 11.0352L39.0128 10.8968C39.048 10.8965 39.099 10.8959 39.1656 10.895C39.2322 10.8941 39.2795 10.8893 39.3074 10.8807C39.3514 10.8666 39.3841 10.8459 39.4054 10.8186C39.4268 10.7899 39.4392 10.7496 39.4426 10.6977L39.5727 8.69407C39.5756 8.64859 39.5709 8.61045 39.5586 8.57963C39.5463 8.54752 39.5142 8.51934 39.4623 8.49509C39.4243 8.47697 39.3759 8.45947 39.3169 8.4426C39.2594 8.42451 39.2119 8.41294 39.1744 8.4079L39.1833 8.26952L40.4288 8.35036L40.4198 8.48874C40.3794 8.48743 40.331 8.48951 40.2745 8.49497C40.2182 8.49914 40.1688 8.50638 40.1263 8.51667C40.0759 8.52906 40.0412 8.55224 40.022 8.58623C40.0028 8.62022 39.9919 8.65865 39.9891 8.70153L39.8591 10.7032C39.8564 10.7461 39.863 10.785 39.879 10.8199C39.8963 10.8537 39.9271 10.8818 39.9714 10.9042C39.998 10.9164 40.0414 10.931 40.1016 10.9479C40.1632 10.9637 40.2154 10.9736 40.2582 10.9776L40.2492 11.116Z" fill="white"/>
<path d="M43.8389 10.4703C43.8073 10.4689 43.7643 10.4682 43.7099 10.4682C43.6569 10.4671 43.613 10.4715 43.5781 10.4815C43.5361 10.4942 43.5037 10.5172 43.4807 10.5505C43.4593 10.5827 43.4445 10.6226 43.4363 10.6703L43.4 10.8832C43.3735 11.038 43.3563 11.1426 43.3483 11.1969C43.3416 11.2516 43.3366 11.2965 43.3332 11.3318C43.1484 11.3798 42.9674 11.41 42.7901 11.4221C42.6127 11.4343 42.4422 11.4264 42.2784 11.3984C42.1029 11.3684 41.9396 11.3066 41.7883 11.213C41.637 11.1195 41.5111 11.0017 41.4106 10.8597C41.309 10.7162 41.2371 10.5506 41.1949 10.3628C41.1526 10.1751 41.15 9.97283 41.1871 9.75613C41.2228 9.54716 41.29 9.35953 41.3888 9.19321C41.4891 9.02582 41.6137 8.88715 41.7626 8.77719C41.9072 8.66915 42.0701 8.5941 42.2512 8.55205C42.4338 8.50892 42.6218 8.5039 42.8153 8.53697C42.9701 8.56343 43.1017 8.60518 43.2101 8.66221C43.3185 8.71924 43.412 8.7817 43.4907 8.84958L43.5925 8.73157L43.7473 8.75803L43.6007 9.72068L43.442 9.69356C43.433 9.58316 43.4172 9.47359 43.3947 9.36485C43.3723 9.25483 43.3365 9.15378 43.2872 9.06171C43.2379 8.96964 43.1715 8.89192 43.0881 8.82854C43.0062 8.76409 42.902 8.72106 42.7756 8.69945C42.6376 8.67585 42.5095 8.68317 42.3915 8.7214C42.2737 8.75835 42.1653 8.82545 42.0663 8.9227C41.9694 9.01631 41.8859 9.13945 41.816 9.29212C41.7461 9.44479 41.6943 9.6198 41.6605 9.81715C41.6308 9.99129 41.6233 10.1593 41.6381 10.3211C41.6544 10.4819 41.693 10.6252 41.7538 10.7511C41.8141 10.8796 41.8987 10.987 42.0074 11.0733C42.1161 11.1595 42.2465 11.2157 42.3987 11.2417C42.5122 11.2611 42.6184 11.2614 42.7172 11.2424C42.8174 11.2237 42.8901 11.1983 42.9354 11.1662C42.9572 11.1009 42.9739 11.034 42.9856 10.9657C42.9986 10.8975 43.0091 10.8396 43.0173 10.7919L43.0431 10.641C43.0524 10.5868 43.0528 10.5377 43.0443 10.4938C43.0374 10.4488 43.0124 10.4127 42.9693 10.3854C42.93 10.3588 42.8744 10.3347 42.8024 10.3131C42.732 10.2904 42.6763 10.2742 42.6355 10.2646L42.6596 10.1234L43.8631 10.3291L43.8389 10.4703Z" fill="white"/>
<path d="M47.8712 10.0703C47.836 10.0609 47.7794 10.0545 47.7015 10.0511C47.6235 10.0477 47.566 10.0512 47.5287 10.0616C47.4744 10.079 47.4256 10.1294 47.3824 10.2129C47.3404 10.2967 47.2987 10.4065 47.2572 10.5422L46.6639 12.4828L46.5014 12.4332L45.5581 9.77355L45.1401 11.1408C45.0932 11.2939 45.0666 11.4144 45.0602 11.5023C45.0549 11.5906 45.0669 11.6583 45.0961 11.7053C45.1164 11.7415 45.1677 11.7851 45.2501 11.8362C45.3326 11.8872 45.3879 11.9178 45.4162 11.9278L45.3756 12.0604L44.2886 11.728L44.3291 11.5954C44.3635 11.6032 44.4238 11.6087 44.5099 11.6119C44.5965 11.6138 44.6524 11.6091 44.6776 11.5978C44.7319 11.5763 44.7779 11.5325 44.8158 11.4664C44.8541 11.3992 44.8997 11.279 44.9526 11.1059L45.3518 9.80034C45.3693 9.74306 45.3769 9.68274 45.3744 9.61937C45.372 9.556 45.3588 9.50361 45.3347 9.4622C45.3024 9.4074 45.2521 9.35388 45.1836 9.30164C45.1168 9.24853 45.0601 9.2135 45.0135 9.19654L45.0541 9.06393L45.8105 9.29521L46.6831 11.7719L47.0686 10.5111C47.1158 10.3567 47.142 10.2354 47.1472 10.1471C47.1528 10.0576 47.1411 9.99341 47.1121 9.9546C47.0845 9.92028 47.0343 9.87973 46.9614 9.83295C46.8898 9.78655 46.8339 9.75583 46.7935 9.74077L46.8341 9.60816L47.9118 9.93767L47.8712 10.0703Z" fill="white"/>
<path d="M51.9479 12.617L51.8174 12.5496C51.8404 12.4454 51.8399 12.3211 51.8161 12.1766C51.7934 12.0327 51.7494 11.9373 51.684 11.8903C51.6504 11.8671 51.6093 11.8415 51.5606 11.8134C51.5131 11.786 51.458 11.7561 51.3954 11.7237L50.9813 11.51L50.4695 12.5018L50.7531 12.6481C50.8389 12.6924 50.9101 12.7181 50.9666 12.7253C51.0238 12.7313 51.0787 12.7244 51.1315 12.7046C51.1679 12.6911 51.2091 12.6624 51.2552 12.6186C51.3031 12.5743 51.3458 12.5229 51.3833 12.4644L51.5155 12.5326L51.0154 13.5018L50.8832 13.4335C50.906 13.3807 50.9238 13.3164 50.9364 13.2407C50.9502 13.1655 50.953 13.1075 50.9448 13.0665C50.9321 13.0056 50.903 12.9539 50.8574 12.9113C50.8136 12.8681 50.7546 12.8274 50.6804 12.789L50.3968 12.6427L49.9577 13.4935C49.9379 13.5318 49.9278 13.5699 49.9273 13.6078C49.9268 13.6457 49.9409 13.6839 49.9696 13.7222C49.9828 13.7393 50.0154 13.7686 50.0675 13.8101C50.1195 13.8517 50.1603 13.8808 50.1898 13.8975L50.1261 14.021L49.056 13.4688L49.1198 13.3453C49.1558 13.3609 49.204 13.3814 49.2644 13.4067C49.3254 13.4308 49.3666 13.4433 49.3882 13.4442C49.4308 13.447 49.4671 13.4379 49.4972 13.4167C49.529 13.3949 49.5557 13.3631 49.5772 13.3214L50.4967 11.5397C50.5164 11.5015 50.5274 11.4645 50.5296 11.4289C50.5324 11.3922 50.5183 11.3541 50.4873 11.3146C50.4638 11.2833 50.4283 11.2481 50.381 11.209C50.3347 11.1705 50.2966 11.142 50.2665 11.1235L50.3302 10.9999L52.2667 11.9993L51.9479 12.617Z" fill="white"/>
<path d="M54.8824 14.0338C54.9125 14.208 54.9055 14.3894 54.8615 14.5781C54.8183 14.7656 54.7355 14.9501 54.6131 15.1314C54.4901 15.3138 54.3492 15.4599 54.1904 15.5695C54.0316 15.6792 53.8651 15.7514 53.6908 15.7862C53.5205 15.8221 53.3501 15.8233 53.1794 15.7899C53.0088 15.7565 52.8485 15.6892 52.6984 15.5879C52.5387 15.4802 52.4108 15.3507 52.3148 15.1996C52.2207 15.0481 52.1611 14.8862 52.136 14.7138C52.1095 14.5436 52.1184 14.365 52.1628 14.1782C52.2089 13.991 52.2895 13.8122 52.4046 13.6416C52.5305 13.4549 52.6718 13.3083 52.8284 13.2019C52.9857 13.0944 53.1517 13.0218 53.3263 12.9841C53.4992 12.9468 53.6714 12.9452 53.8432 12.9794C54.016 13.0142 54.1758 13.0812 54.3226 13.1802C54.4748 13.2829 54.599 13.4083 54.6954 13.5566C54.7917 13.7048 54.854 13.8639 54.8824 14.0338ZM53.5423 15.4999C53.669 15.4424 53.7878 15.3608 53.8985 15.2548C54.0103 15.1496 54.1179 15.0204 54.2213 14.8671C54.3276 14.7095 54.4095 14.5543 54.4671 14.4015C54.5257 14.2494 54.5566 14.1069 54.5598 13.974C54.5624 13.8422 54.5359 13.7207 54.4806 13.6096C54.4259 13.4973 54.3409 13.4022 54.2254 13.3243C54.0958 13.237 53.9657 13.1924 53.835 13.1906C53.7042 13.1888 53.5768 13.2182 53.4526 13.279C53.3345 13.3375 53.2191 13.4214 53.1061 13.5306C52.9943 13.6405 52.8911 13.7656 52.7964 13.9059C52.6916 14.0614 52.6109 14.2112 52.5545 14.3553C52.4981 14.4995 52.4674 14.6405 52.4623 14.7784C52.4565 14.9127 52.4797 15.0367 52.5318 15.1504C52.5846 15.263 52.6726 15.3608 52.7956 15.4438C52.9111 15.5217 53.0335 15.565 53.1627 15.5737C53.292 15.5823 53.4185 15.5577 53.5423 15.4999Z" fill="white"/>
<path d="M58.3223 16.6744C58.2941 16.6513 58.2489 16.622 58.1867 16.5863C58.1246 16.5506 58.0674 16.5289 58.0153 16.5212C57.9623 16.5144 57.8986 16.5406 57.824 16.5998C57.7494 16.6589 57.6674 16.7393 57.5781 16.8408L56.7827 17.7447C56.6813 17.8599 56.5693 17.9389 56.4467 17.9818C56.3241 18.0246 56.1997 18.039 56.0734 18.025C55.9498 18.0098 55.8352 17.9757 55.7295 17.9225C55.6239 17.8712 55.5321 17.8111 55.4539 17.7424C55.3289 17.6324 55.2322 17.5178 55.1638 17.3987C55.0945 17.2805 55.0511 17.1644 55.0337 17.0503C55.0173 16.937 55.0238 16.8302 55.0533 16.7297C55.0837 16.6282 55.1333 16.5384 55.202 16.4602L56.2835 15.2312C56.3136 15.197 56.3327 15.1636 56.3407 15.1308C56.3506 15.0979 56.3471 15.0567 56.3301 15.007C56.3177 14.9719 56.2959 14.9336 56.2647 14.8923C56.2343 14.85 56.2078 14.8171 56.1851 14.7937L56.2766 14.6897L57.1424 15.4515L57.0508 15.5555C57.0226 15.5324 56.9841 15.5063 56.9352 15.4772C56.8873 15.4489 56.8506 15.4296 56.8251 15.4192C56.7816 15.4017 56.7419 15.4015 56.7061 15.4185C56.6713 15.4364 56.6397 15.4615 56.6114 15.4937L55.6008 16.6422C55.5518 16.6978 55.5061 16.7616 55.4637 16.8334C55.4231 16.9051 55.3976 16.9833 55.3874 17.0678C55.3782 17.155 55.3913 17.2445 55.4266 17.3363C55.462 17.428 55.5368 17.5242 55.6511 17.6247C55.7585 17.7193 55.8634 17.7812 55.9657 17.8106C56.069 17.8409 56.1662 17.8467 56.2571 17.828C56.3436 17.8105 56.4205 17.7802 56.4878 17.7372C56.5551 17.6942 56.6145 17.6434 56.6661 17.5848L57.4163 16.7323C57.5117 16.6239 57.5816 16.5286 57.6262 16.4465C57.6716 16.3634 57.6886 16.2978 57.6772 16.2497C57.6645 16.1952 57.6344 16.1349 57.5869 16.0688C57.5403 16.0036 57.5022 15.9562 57.4727 15.9268L57.5642 15.8228L58.4139 16.5704L58.3223 16.6744Z" fill="white"/>
<path d="M60.9804 19.55C60.9554 19.5234 60.9107 19.4881 60.8463 19.4442C60.7818 19.4002 60.731 19.3728 60.6939 19.3621C60.6386 19.3482 60.5705 19.3654 60.4898 19.4136C60.41 19.4627 60.3166 19.534 60.2099 19.6275L58.683 20.9642L58.5711 20.8364L59.1708 18.0789L58.0951 19.0206C57.9746 19.1261 57.8884 19.2145 57.8367 19.2858C57.7857 19.3581 57.7603 19.4219 57.7603 19.4773C57.7584 19.5187 57.7791 19.5828 57.8222 19.6697C57.8654 19.7565 57.8963 19.8116 57.9151 19.835L57.8107 19.9263L57.062 19.0711L57.1663 18.9797C57.1914 19.0045 57.2398 19.0409 57.3113 19.089C57.3838 19.1363 57.4338 19.1617 57.4613 19.1654C57.5187 19.1757 57.5809 19.1627 57.6479 19.1266C57.7159 19.0896 57.818 19.0115 57.9541 18.8923L58.9813 17.993C59.0264 17.9535 59.0646 17.9062 59.096 17.8511C59.1273 17.796 59.1436 17.7445 59.145 17.6966C59.1464 17.633 59.1318 17.561 59.1012 17.4805C59.0724 17.4002 59.0427 17.3405 59.012 17.3016L59.1164 17.2102L59.6374 17.8054L59.074 20.3701L60.066 19.5017C60.1874 19.3953 60.2737 19.306 60.3246 19.2337C60.3765 19.1606 60.4004 19.0999 60.3962 19.0516C60.3908 19.0079 60.3695 18.947 60.3322 18.8688C60.2958 18.7917 60.2644 18.7361 60.2381 18.702L60.3424 18.6107L61.0848 19.4586L60.9804 19.55Z" fill="white"/>
<path d="M62.0288 23.2938C61.8334 23.4256 61.6392 23.5033 61.4461 23.5267C61.253 23.5501 61.0709 23.534 60.8998 23.4782C60.728 23.4214 60.5695 23.3343 60.4244 23.217C60.2793 23.0997 60.1536 22.9622 60.0473 22.8046L59.4051 21.8526L59.52 21.775C59.5411 21.8063 59.5712 21.845 59.61 21.891C59.6507 21.9373 59.6803 21.9661 59.6988 21.9772C59.7347 22.0001 59.7709 22.0095 59.8073 22.0053C59.8456 22.0015 59.8841 21.9865 59.923 21.9602L61.581 20.8418C61.6177 20.817 61.6463 20.7884 61.6667 20.7557C61.6878 20.7242 61.6946 20.6843 61.6872 20.6359C61.6808 20.5915 61.6683 20.5474 61.6496 20.5034C61.6309 20.4594 61.6132 20.4227 61.5965 20.3932L61.7114 20.3156L62.3886 21.3195C62.4818 21.4577 62.552 21.6083 62.5991 21.7712C62.6473 21.9335 62.6687 22.0887 62.6634 22.2368C62.6583 22.4365 62.6039 22.6271 62.5002 22.8086C62.3964 22.9901 62.2393 23.1518 62.0288 23.2938ZM61.7628 22.896C61.9172 22.7919 62.0426 22.6775 62.1391 22.5527C62.2366 22.4272 62.3052 22.2938 62.3449 22.1524C62.3832 22.0182 62.3909 21.8795 62.3681 21.7362C62.346 21.594 62.2902 21.4566 62.2007 21.3238C62.1708 21.2795 62.1359 21.2301 62.0958 21.1754C62.0576 21.1211 62.0289 21.0808 62.0096 21.0545L60.2431 22.2461C60.1448 22.3124 60.0961 22.3869 60.0969 22.4696C60.0978 22.5523 60.1382 22.653 60.2183 22.7717C60.3108 22.9088 60.4159 23.0123 60.5336 23.082C60.6514 23.1518 60.7749 23.1894 60.9042 23.1949C61.0401 23.2006 61.1775 23.1786 61.3167 23.1287C61.4576 23.0792 61.6063 23.0016 61.7628 22.896Z" fill="white"/>
<path d="M62.4448 27.0804L61.9262 26.0492L62.05 25.9869C62.1015 26.0747 62.1509 26.1439 62.1981 26.1944C62.246 26.2462 62.2827 26.2656 62.3083 26.2527C62.3188 26.2474 62.331 26.2398 62.345 26.2299C62.3589 26.22 62.3705 26.2098 62.3798 26.1993L62.8312 25.7143L62.395 24.8471C62.2972 24.8555 62.2128 24.8644 62.1418 24.8739C62.0713 24.8845 62.0064 24.8946 61.9471 24.904C61.8894 24.9141 61.8435 24.9241 61.8091 24.9341C61.7748 24.944 61.7477 24.954 61.728 24.9639C61.6814 24.9874 61.6638 25.0421 61.6751 25.1283C61.6863 25.2144 61.7127 25.3046 61.7543 25.3989L61.6304 25.4612L61.1618 24.5294L61.2857 24.4671C61.3032 24.4962 61.3287 24.5308 61.3619 24.5709C61.3964 24.6104 61.4302 24.64 61.4635 24.6597C61.5183 24.6905 61.569 24.7101 61.6156 24.7188C61.6634 24.7268 61.7236 24.7278 61.7964 24.7218C62.1696 24.6901 62.5876 24.6519 63.0504 24.6071C63.5133 24.5623 63.9254 24.5227 64.287 24.488L64.3572 24.6276L62.6365 26.5271C62.5999 26.5673 62.5732 26.6055 62.5564 26.6417C62.5396 26.6778 62.5278 26.7224 62.5209 26.7754C62.5181 26.8104 62.5217 26.8523 62.5317 26.9012C62.5429 26.9495 62.5552 26.9885 62.5687 27.0181L62.4448 27.0804ZM62.9549 25.5734L63.7259 24.7156L62.581 24.8301L62.9549 25.5734Z" fill="white"/>
<path d="M65.2873 29.0714L65.2415 28.9447C65.2816 28.9177 65.3263 28.8787 65.3757 28.8277C65.4267 28.7774 65.4727 28.7248 65.5137 28.6698C65.5567 28.6127 65.5911 28.5546 65.6168 28.4955C65.6441 28.4372 65.6535 28.3867 65.6451 28.3441C65.6362 28.3044 65.6226 28.2553 65.6043 28.1969C65.5859 28.1385 65.5679 28.0848 65.5502 28.0358L65.5117 27.9293L63.4279 28.683C63.3875 28.6976 63.3532 28.7197 63.3252 28.7492C63.2983 28.7783 63.2835 28.8176 63.2806 28.867C63.28 28.8922 63.285 28.9423 63.2955 29.0174C63.3065 29.0937 63.3185 29.1516 63.3314 29.1912L63.201 29.2384L62.7562 28.0083L62.8865 27.9611C62.9014 27.9945 62.9251 28.0448 62.9576 28.1119C62.9907 28.1802 63.0175 28.2258 63.0383 28.2488C63.0688 28.2834 63.1021 28.3046 63.1381 28.3123C63.1758 28.3209 63.2197 28.316 63.2699 28.2979L65.3702 27.5383L65.3317 27.4318C65.318 27.3939 65.2997 27.3472 65.2769 27.2918C65.2553 27.2359 65.2322 27.1834 65.2075 27.1342C65.188 27.0956 65.1482 27.0622 65.0882 27.0341C65.0299 27.0067 64.9666 26.9846 64.8982 26.9678C64.8298 26.951 64.7594 26.9399 64.6868 26.9343C64.6154 26.9283 64.5575 26.927 64.5131 26.9306L64.4666 26.8021L65.1735 26.5465L65.9942 28.8157L65.2873 29.0714Z" fill="white"/>
<path d="M63.8535 31.6551L63.5368 30.4479L63.6709 30.4127C63.6824 30.446 63.699 30.4942 63.7209 30.5571C63.7428 30.62 63.7623 30.6634 63.7793 30.6872C63.8066 30.7244 63.8365 30.7489 63.8692 30.7605C63.9031 30.7718 63.9453 30.7708 63.9957 30.7576L65.9378 30.248C65.9819 30.2364 66.0166 30.2199 66.042 30.1985C66.0685 30.1767 66.0851 30.1373 66.0917 30.0804C66.0969 30.0387 66.0982 29.9872 66.0956 29.9259C66.0946 29.8656 66.0906 29.8169 66.0835 29.7797L66.2177 29.7445L66.5344 30.9517L66.4003 30.9869C66.3888 30.9482 66.3715 30.9029 66.3485 30.8511C66.3267 30.7989 66.3042 30.7543 66.2811 30.7173C66.2534 30.6734 66.2204 30.6477 66.1821 30.6403C66.1438 30.6328 66.1039 30.6346 66.0623 30.6455L64.122 31.1546C64.0805 31.1655 64.0456 31.184 64.0175 31.2103C63.991 31.2374 63.974 31.2755 63.9667 31.3246C63.9636 31.3536 63.9635 31.3994 63.9664 31.4619C63.9709 31.5254 63.978 31.578 63.9877 31.6199L63.8535 31.6551Z" fill="white"/>
<path d="M66.8824 34.333C66.7748 34.4733 66.6368 34.5912 66.4683 34.6868C66.3011 34.7822 66.1094 34.8464 65.8932 34.8795C65.6757 34.9128 65.4728 34.9083 65.2845 34.866C65.0963 34.8237 64.9303 34.7503 64.7865 34.6459C64.6446 34.5451 64.5281 34.4206 64.4369 34.2726C64.3458 34.1245 64.2865 33.961 64.2591 33.7821C64.23 33.5916 64.2384 33.4099 64.2843 33.2369C64.3318 33.0649 64.4104 32.9113 64.5201 32.776C64.6272 32.641 64.7644 32.5265 64.9318 32.4324C65.1007 32.3393 65.2868 32.2773 65.4901 32.2461C65.7128 32.2121 65.9163 32.2165 66.1007 32.2594C66.2864 32.3021 66.4523 32.3748 66.5985 32.4776C66.7431 32.5793 66.8611 32.7048 66.9525 32.8542C67.044 33.0048 67.1032 33.1677 67.13 33.3427C67.1578 33.5242 67.1499 33.7006 67.1063 33.8719C67.0627 34.0432 66.9881 34.1969 66.8824 34.333ZM64.8962 34.3426C65.0243 34.3967 65.1649 34.4286 65.3178 34.4381C65.471 34.4489 65.6389 34.4403 65.8217 34.4123C66.0096 34.3836 66.1792 34.3385 66.3305 34.2771C66.482 34.2171 66.6077 34.1432 66.7076 34.0554C66.8061 33.9679 66.8775 33.8661 66.9216 33.75C66.9671 33.6337 66.9792 33.5067 66.9582 33.369C66.9345 33.2145 66.879 33.0887 66.7917 32.9914C66.7044 32.8941 66.5963 32.8204 66.4674 32.7703C66.3443 32.7233 66.2043 32.6953 66.0475 32.6864C65.8909 32.6788 65.729 32.6878 65.5616 32.7134C65.3763 32.7417 65.2115 32.7841 65.0674 32.8404C64.9232 32.8967 64.7987 32.9698 64.6939 33.0596C64.5912 33.1464 64.5158 33.2475 64.4676 33.3629C64.4207 33.4781 64.4085 33.6091 64.431 33.7558C64.452 33.8935 64.5032 34.0128 64.5845 34.1136C64.6658 34.2145 64.7697 34.2908 64.8962 34.3426Z" fill="white"/>
<path d="M67.3011 38.675C67.2989 38.6386 67.2873 38.5828 67.266 38.5078C67.2448 38.4327 67.2234 38.3792 67.2018 38.3471C67.1682 38.301 67.105 38.2705 67.0122 38.2557C66.9194 38.2422 66.8021 38.237 66.6602 38.2402L64.6316 38.2863L64.6278 38.1164L66.8564 36.3859L65.4272 36.4183C65.2671 36.422 65.1444 36.4345 65.0589 36.456C64.9735 36.4788 64.913 36.5114 64.8775 36.5539C64.8495 36.5845 64.8243 36.6469 64.8017 36.7412C64.7791 36.8355 64.7674 36.8976 64.7668 36.9275L64.6282 36.9307L64.6024 35.7944L64.741 35.7912C64.7444 35.8263 64.7581 35.8852 64.7821 35.968C64.8075 36.0508 64.8295 36.1024 64.8482 36.1228C64.8856 36.1676 64.9417 36.1975 65.0163 36.2128C65.0921 36.228 65.2205 36.2335 65.4015 36.2294L66.7662 36.1984C66.8261 36.1971 66.8857 36.1853 66.9451 36.1631C67.0045 36.1409 67.0501 36.1119 67.0819 36.076C67.1237 36.0282 67.1587 35.9636 67.1868 35.8822C67.2163 35.8021 67.2317 35.7373 67.2332 35.6877L67.3718 35.6846L67.3898 36.4753L65.3126 38.0814L66.6305 38.0514C66.7919 38.0478 66.9154 38.0345 67.0008 38.0118C67.0875 37.989 67.1448 37.9577 67.1725 37.918C67.1964 37.881 67.2191 37.8206 67.2407 37.7367C67.2623 37.6542 67.2738 37.5914 67.2755 37.5484L67.4141 37.5453L67.4397 38.6718L67.3011 38.675Z" fill="white"/>
</svg>
