<svg width="75" height="75" viewBox="0 0 75 75" fill="none" xmlns="http://www.w3.org/2000/svg">
<rect width="75" height="75" fill="white"/>
<path d="M10.6975 28.0987H22.4846V63.57H10.6975V28.0987ZM16.6699 11C12.6357 11 10 13.6485 10 17.1248C10 20.5295 12.5585 23.255 16.5157 23.255H16.5908C20.7022 23.255 23.2626 20.5294 23.2626 17.1248C23.1855 13.6485 20.7023 11 16.6699 11ZM51.4253 27.2655C45.1686 27.2655 42.3655 30.7069 40.8018 33.1203V28.0987H29.0111C29.1672 31.4263 29.0111 63.57 29.0111 63.57H40.8018V43.7604C40.8018 42.6994 40.879 41.6423 41.1892 40.8823C42.0429 38.7643 43.9828 36.5709 47.2368 36.5709C51.5061 36.5709 53.2111 39.8252 53.2111 44.5915V63.5699H65V43.23C65 32.3349 59.1855 27.2655 51.4253 27.2655Z" fill="black"/>
</svg>
