<svg width="28" height="19" viewBox="0 0 28 19" fill="none" xmlns="http://www.w3.org/2000/svg">
<path fill-rule="evenodd" clip-rule="evenodd" d="M0 1.50092C0 0.672387 0.89543 0.000732422 2 0.000732422H26C27.1046 0.000732422 28 0.672387 28 1.50092C28 2.32944 27.1046 3.0011 26 3.0011H2C0.89543 3.0011 0 2.32944 0 1.50092Z" fill="#4CB26E"/>
<path fill-rule="evenodd" clip-rule="evenodd" d="M0 9.00183C0 8.1733 0.89543 7.50165 2 7.50165H26C27.1046 7.50165 28 8.1733 28 9.00183C28 9.83036 27.1046 10.502 26 10.502H2C0.89543 10.502 0 9.83036 0 9.00183Z" fill="#4CB26E"/>
<path fill-rule="evenodd" clip-rule="evenodd" d="M0 16.5028C0 15.6742 0.89543 15.0026 2 15.0026H26C27.1046 15.0026 28 15.6742 28 16.5028C28 17.3313 27.1046 18.0029 26 18.0029H2C0.89543 18.0029 0 17.3313 0 16.5028Z" fill="#4CB26E"/>
</svg>
