<svg width="24" height="24" viewBox="0 0 24 24" fill="none" xmlns="http://www.w3.org/2000/svg">
<path fill-rule="evenodd" clip-rule="evenodd" d="M0.585786 0.585786C1.36683 -0.195262 2.63317 -0.195262 3.41421 0.585786L12 9.17157L20.5858 0.585786C21.3668 -0.195262 22.6332 -0.195262 23.4142 0.585786C24.1953 1.36683 24.1953 2.63317 23.4142 3.41421L14.8284 12L23.4142 20.5858C24.1953 21.3668 24.1953 22.6332 23.4142 23.4142C22.6332 24.1953 21.3668 24.1953 20.5858 23.4142L12 14.8284L3.41421 23.4142C2.63317 24.1953 1.36683 24.1953 0.585786 23.4142C-0.195262 22.6332 -0.195262 21.3668 0.585786 20.5858L9.17157 12L0.585786 3.41421C-0.195262 2.63317 -0.195262 1.36683 0.585786 0.585786Z" fill="#4CB26E"/>
</svg>
