<svg width="75" height="75" viewBox="0 0 75 75" fill="none" xmlns="http://www.w3.org/2000/svg">
<path d="M37.6221 26.2232C40.7221 26.2232 43.3664 27.3132 45.5546 29.4933C47.7429 31.6734 48.837 34.3395 48.837 37.487C48.837 40.5754 47.7429 43.2249 45.5546 45.4354C43.3664 47.6458 40.7221 48.751 37.6221 48.751C34.5222 48.751 31.8779 47.6458 29.6897 45.4354C27.5014 43.2249 26.4072 40.5756 26.4072 37.487C26.4072 34.3395 27.5014 31.6734 29.6897 29.4933C31.8779 27.3132 34.5222 26.2232 37.6221 26.2232Z" fill="white"/>
<path d="M2.53125 4.06537H16.6981V14.5446C18.16 12.4557 21.9711 7.61092 28.8695 4.72991C34.9637 2.18497 40.3855 2.45905 42.9316 2.75144V16.3107C41.8031 16.2851 40.097 16.3269 38.0841 16.7147C28.366 18.5881 19.2625 27.0305 16.8789 36.6242C15.8987 40.5704 15.9481 45.1124 16.0494 53.1693C16.0714 54.9273 16.0494 72.3805 16.0494 72.3805L2.53125 72.392V4.06537Z" fill="white"/>
<path d="M72.5313 70.895H58.3644V60.4158C56.9025 62.5046 53.0914 67.3494 46.193 70.2304C40.0988 72.7753 34.677 72.5013 32.1309 72.2089V58.6496C33.2594 58.6753 34.9655 58.6334 36.9784 58.2456C46.6965 56.3722 55.8 47.9298 58.1836 38.3361C59.1638 34.3899 59.1144 29.848 59.0131 21.791C58.9911 20.033 59.0131 2.57988 59.0131 2.57988L72.5313 2.56837V70.895Z" fill="white"/>
</svg>
