<svg width="75" height="75" viewBox="0 0 75 75" fill="none" xmlns="http://www.w3.org/2000/svg">
<rect width="75" height="75" fill="#E8432E"/>
<path d="M34.9796 42.1377V24.2425C34.9796 22.9325 34.2247 22.111 33.0258 22.111C31.8268 22.111 31.0941 22.9325 31.0941 24.2425V42.0488C31.0941 46.778 28.1412 49.7975 23.4787 49.7975C18.8384 49.7975 15.8854 46.8002 15.8854 42.0488V24.2425C15.8854 22.9325 15.1306 22.111 13.9316 22.111C12.7327 22.111 12 22.9325 12 24.2425V42.0488C12 48.754 16.2185 53.2833 23.4787 53.2833C30.3615 53.2833 34.9796 48.7984 34.9796 42.1377Z" fill="white"/>
<path d="M39.5533 51.0631C39.5533 52.1288 40.3304 52.8615 41.5071 52.8615C42.2842 52.8615 42.6838 52.5284 43.5719 51.1741L50.5213 40.5835H50.7211L57.8037 51.1741C58.6918 52.5284 59.1137 52.8615 59.9352 52.8615C61.1785 52.8615 62 52.151 62 51.0631C62 50.5524 61.8002 50.0861 61.2007 49.2202L53.0746 37.6528L61.1785 25.619C61.8224 24.6643 62 24.2869 62 23.7984C62 22.7327 61.2007 22 60.0462 22C59.2691 22 58.8472 22.3552 57.9813 23.6874L51.0542 34.4112H50.8544L43.9716 23.6874C43.0835 22.3552 42.6394 22 41.8179 22C40.5746 22 39.7531 22.7105 39.7531 23.7984C39.7531 24.3091 39.9529 24.7753 40.5524 25.6412L48.3455 37.3641L40.3748 49.2425C39.7309 50.1972 39.5533 50.5746 39.5533 51.0631Z" fill="white"/>
</svg>
