<svg width="75" height="75" viewBox="0 0 75 75" fill="none" xmlns="http://www.w3.org/2000/svg">
<rect width="75" height="75" fill="#4CB26E"/>
<g clip-path="url(#clip0)">
<path d="M36.6006 28C35.1122 28 33.9629 29.1231 33.9629 30.5854C33.9629 32.0479 35.1122 33.171 36.6006 33.171C38.0893 33.171 39.2383 32.0479 39.2383 30.5854C39.2383 29.1231 38.0893 28 36.6006 28Z" fill="black"/>
<path d="M25.3363 39.8381L21.8449 28.6788H16.7001L13.2088 39.8381L10.2755 28.6788H5L9.93613 46.9601H15.8642L19.142 36.4837L22.4195 46.9601H28.3478L33.2837 28.6788H28.2695L25.3363 39.8381Z" fill="black"/>
<path fill-rule="evenodd" clip-rule="evenodd" d="M47.0469 33.5626C48.8323 33.5626 50.4339 34.5003 51.5127 35.9754V28.6788H56.3444V46.9601H51.5127V44.8867C50.4339 46.3619 48.8323 47.2995 47.0469 47.2995C43.8084 47.2995 41.1709 44.2178 41.1709 40.4311C41.1709 36.6442 43.8084 33.5626 47.0469 33.5626ZM46.3157 40.4311C46.3157 41.8415 47.4648 42.9643 48.9012 42.9643C50.3375 42.9643 51.4865 41.8415 51.4865 40.4311C51.4865 39.0209 50.3375 37.8978 48.9012 37.8978C47.4648 37.8978 46.3157 39.0209 46.3157 40.4311Z" fill="black"/>
<path d="M59.1133 46.9602H63.9449V34.1635H59.1133V46.9602Z" fill="black"/>
<path d="M64.4932 36.1744C64.4932 34.7119 65.6423 33.5887 67.131 33.5887C68.6194 33.5887 69.7687 34.7119 69.7687 36.1744C69.7687 37.6369 68.6194 38.7598 67.131 38.7598C65.6423 38.7598 64.4932 37.6369 64.4932 36.1744Z" fill="black"/>
<path d="M39.0035 46.9602H34.1719V34.1635H39.0035V46.9602Z" fill="black"/>
</g>
<defs>
<clipPath id="clip0">
<rect width="65" height="19.7131" fill="white" transform="translate(5 28)"/>
</clipPath>
</defs>
</svg>
