<svg width="75" height="75" viewBox="0 0 75 75" fill="none" xmlns="http://www.w3.org/2000/svg">
<path d="M36.5924 26C34.8689 26 33.538 27.3005 33.538 28.9938C33.538 30.6874 34.8689 31.9879 36.5924 31.9879C38.3163 31.9879 39.6468 30.6874 39.6468 28.9938C39.6468 27.3005 38.3163 26 36.5924 26Z" fill="white"/>
<path d="M23.5489 39.7082L19.506 26.7861H13.5484L9.50555 39.7082L6.1089 26.7861H0L5.71591 47.9553H12.5805L16.376 35.824L20.1713 47.9553H27.0362L32.7517 26.7861H26.9454L23.5489 39.7082Z" fill="white"/>
<path fill-rule="evenodd" clip-rule="evenodd" d="M48.6893 32.4414C50.7568 32.4414 52.6114 33.5272 53.8606 35.2353V26.7861H59.4556V47.9553H53.8606V45.5544C52.6114 47.2626 50.7568 48.3483 48.6893 48.3483C44.9393 48.3483 41.8851 44.7799 41.8851 40.3949C41.8851 36.0098 44.9393 32.4414 48.6893 32.4414ZM47.8427 40.3949C47.8427 42.0281 49.1733 43.3283 50.8366 43.3283C52.4998 43.3283 53.8303 42.0281 53.8303 40.3949C53.8303 38.762 52.4998 37.4614 50.8366 37.4614C49.1733 37.4614 47.8427 38.762 47.8427 40.3949Z" fill="white"/>
<path d="M62.6613 47.9555H68.2562V33.1371H62.6613V47.9555Z" fill="white"/>
<path d="M68.8911 35.4657C68.8911 33.7721 70.2217 32.4716 71.9456 32.4716C73.6691 32.4716 75 33.7721 75 35.4657C75 37.1592 73.6691 38.4595 71.9456 38.4595C70.2217 38.4595 68.8911 37.1592 68.8911 35.4657Z" fill="white"/>
<path d="M39.3749 47.9555H33.7801V33.1371H39.3749V47.9555Z" fill="white"/>
</svg>
